%TF.GenerationSoftware,KiCad,Pcbnew,(5.1.9)-1*%
%TF.CreationDate,2021-06-28T23:03:33+02:00*%
%TF.ProjectId,PiccoloBlack2021_june9_v7avecMasse,50696363-6f6c-46f4-926c-61636b323032,rev?*%
%TF.SameCoordinates,Original*%
%TF.FileFunction,Legend,Bot*%
%TF.FilePolarity,Positive*%
%FSLAX46Y46*%
G04 Gerber Fmt 4.6, Leading zero omitted, Abs format (unit mm)*
G04 Created by KiCad (PCBNEW (5.1.9)-1) date 2021-06-28 23:03:33*
%MOMM*%
%LPD*%
G01*
G04 APERTURE LIST*
%ADD10C,0.300000*%
%ADD11C,0.120000*%
%ADD12C,0.304800*%
%ADD13C,0.200000*%
%ADD14C,0.150000*%
%ADD15C,0.254000*%
G04 APERTURE END LIST*
D10*
X285351828Y-137437942D02*
X285351828Y-134437942D01*
X284208971Y-134437942D01*
X283923257Y-134580800D01*
X283780400Y-134723657D01*
X283637542Y-135009371D01*
X283637542Y-135437942D01*
X283780400Y-135723657D01*
X283923257Y-135866514D01*
X284208971Y-136009371D01*
X285351828Y-136009371D01*
X282351828Y-137437942D02*
X282351828Y-135437942D01*
X282351828Y-134437942D02*
X282494685Y-134580800D01*
X282351828Y-134723657D01*
X282208971Y-134580800D01*
X282351828Y-134437942D01*
X282351828Y-134723657D01*
X279637542Y-137295085D02*
X279923257Y-137437942D01*
X280494685Y-137437942D01*
X280780400Y-137295085D01*
X280923257Y-137152228D01*
X281066114Y-136866514D01*
X281066114Y-136009371D01*
X280923257Y-135723657D01*
X280780400Y-135580800D01*
X280494685Y-135437942D01*
X279923257Y-135437942D01*
X279637542Y-135580800D01*
X277066114Y-137295085D02*
X277351828Y-137437942D01*
X277923257Y-137437942D01*
X278208971Y-137295085D01*
X278351828Y-137152228D01*
X278494685Y-136866514D01*
X278494685Y-136009371D01*
X278351828Y-135723657D01*
X278208971Y-135580800D01*
X277923257Y-135437942D01*
X277351828Y-135437942D01*
X277066114Y-135580800D01*
X275351828Y-137437942D02*
X275637542Y-137295085D01*
X275780400Y-137152228D01*
X275923257Y-136866514D01*
X275923257Y-136009371D01*
X275780400Y-135723657D01*
X275637542Y-135580800D01*
X275351828Y-135437942D01*
X274923257Y-135437942D01*
X274637542Y-135580800D01*
X274494685Y-135723657D01*
X274351828Y-136009371D01*
X274351828Y-136866514D01*
X274494685Y-137152228D01*
X274637542Y-137295085D01*
X274923257Y-137437942D01*
X275351828Y-137437942D01*
X272637542Y-137437942D02*
X272923257Y-137295085D01*
X273066114Y-137009371D01*
X273066114Y-134437942D01*
X271066114Y-137437942D02*
X271351828Y-137295085D01*
X271494685Y-137152228D01*
X271637542Y-136866514D01*
X271637542Y-136009371D01*
X271494685Y-135723657D01*
X271351828Y-135580800D01*
X271066114Y-135437942D01*
X270637542Y-135437942D01*
X270351828Y-135580800D01*
X270208971Y-135723657D01*
X270066114Y-136009371D01*
X270066114Y-136866514D01*
X270208971Y-137152228D01*
X270351828Y-137295085D01*
X270637542Y-137437942D01*
X271066114Y-137437942D01*
X265494685Y-135866514D02*
X265066114Y-136009371D01*
X264923257Y-136152228D01*
X264780399Y-136437942D01*
X264780399Y-136866514D01*
X264923257Y-137152228D01*
X265066114Y-137295085D01*
X265351828Y-137437942D01*
X266494685Y-137437942D01*
X266494685Y-134437942D01*
X265494685Y-134437942D01*
X265208971Y-134580800D01*
X265066114Y-134723657D01*
X264923257Y-135009371D01*
X264923257Y-135295085D01*
X265066114Y-135580800D01*
X265208971Y-135723657D01*
X265494685Y-135866514D01*
X266494685Y-135866514D01*
X263066114Y-137437942D02*
X263351828Y-137295085D01*
X263494685Y-137009371D01*
X263494685Y-134437942D01*
X260637542Y-137437942D02*
X260637542Y-135866514D01*
X260780399Y-135580800D01*
X261066114Y-135437942D01*
X261637542Y-135437942D01*
X261923257Y-135580800D01*
X260637542Y-137295085D02*
X260923257Y-137437942D01*
X261637542Y-137437942D01*
X261923257Y-137295085D01*
X262066114Y-137009371D01*
X262066114Y-136723657D01*
X261923257Y-136437942D01*
X261637542Y-136295085D01*
X260923257Y-136295085D01*
X260637542Y-136152228D01*
X257923257Y-137295085D02*
X258208971Y-137437942D01*
X258780400Y-137437942D01*
X259066114Y-137295085D01*
X259208971Y-137152228D01*
X259351828Y-136866514D01*
X259351828Y-136009371D01*
X259208971Y-135723657D01*
X259066114Y-135580800D01*
X258780400Y-135437942D01*
X258208971Y-135437942D01*
X257923257Y-135580800D01*
X256637542Y-137437942D02*
X256637542Y-134437942D01*
X256351828Y-136295085D02*
X255494685Y-137437942D01*
X255494685Y-135437942D02*
X256637542Y-136580800D01*
X252066114Y-134723657D02*
X251923257Y-134580800D01*
X251637542Y-134437942D01*
X250923257Y-134437942D01*
X250637542Y-134580800D01*
X250494685Y-134723657D01*
X250351828Y-135009371D01*
X250351828Y-135295085D01*
X250494685Y-135723657D01*
X252208971Y-137437942D01*
X250351828Y-137437942D01*
X248494685Y-134437942D02*
X248208971Y-134437942D01*
X247923257Y-134580800D01*
X247780400Y-134723657D01*
X247637542Y-135009371D01*
X247494685Y-135580800D01*
X247494685Y-136295085D01*
X247637542Y-136866514D01*
X247780400Y-137152228D01*
X247923257Y-137295085D01*
X248208971Y-137437942D01*
X248494685Y-137437942D01*
X248780400Y-137295085D01*
X248923257Y-137152228D01*
X249066114Y-136866514D01*
X249208971Y-136295085D01*
X249208971Y-135580800D01*
X249066114Y-135009371D01*
X248923257Y-134723657D01*
X248780400Y-134580800D01*
X248494685Y-134437942D01*
X246351828Y-134723657D02*
X246208971Y-134580800D01*
X245923257Y-134437942D01*
X245208971Y-134437942D01*
X244923257Y-134580800D01*
X244780400Y-134723657D01*
X244637542Y-135009371D01*
X244637542Y-135295085D01*
X244780400Y-135723657D01*
X246494685Y-137437942D01*
X244637542Y-137437942D01*
X241780400Y-137437942D02*
X243494685Y-137437942D01*
X242637542Y-137437942D02*
X242637542Y-134437942D01*
X242923257Y-134866514D01*
X243208971Y-135152228D01*
X243494685Y-135295085D01*
X240494685Y-137437942D02*
X240494685Y-134437942D01*
X240494685Y-135580800D02*
X240208971Y-135437942D01*
X239637542Y-135437942D01*
X239351828Y-135580800D01*
X239208971Y-135723657D01*
X239066114Y-136009371D01*
X239066114Y-136866514D01*
X239208971Y-137152228D01*
X239351828Y-137295085D01*
X239637542Y-137437942D01*
X240208971Y-137437942D01*
X240494685Y-137295085D01*
X285923257Y-142237942D02*
X285923257Y-139237942D01*
X285923257Y-140380800D02*
X285637542Y-140237942D01*
X285066114Y-140237942D01*
X284780400Y-140380800D01*
X284637542Y-140523657D01*
X284494685Y-140809371D01*
X284494685Y-141666514D01*
X284637542Y-141952228D01*
X284780400Y-142095085D01*
X285066114Y-142237942D01*
X285637542Y-142237942D01*
X285923257Y-142095085D01*
X283494685Y-140237942D02*
X282780400Y-142237942D01*
X282066114Y-140237942D02*
X282780400Y-142237942D01*
X283066114Y-142952228D01*
X283208971Y-143095085D01*
X283494685Y-143237942D01*
X278780400Y-142095085D02*
X278494685Y-142237942D01*
X277923257Y-142237942D01*
X277637542Y-142095085D01*
X277494685Y-141809371D01*
X277494685Y-141666514D01*
X277637542Y-141380800D01*
X277923257Y-141237942D01*
X278351828Y-141237942D01*
X278637542Y-141095085D01*
X278780400Y-140809371D01*
X278780400Y-140666514D01*
X278637542Y-140380800D01*
X278351828Y-140237942D01*
X277923257Y-140237942D01*
X277637542Y-140380800D01*
X276494685Y-140237942D02*
X275780400Y-142237942D01*
X275066114Y-140237942D02*
X275780400Y-142237942D01*
X276066114Y-142952228D01*
X276208971Y-143095085D01*
X276494685Y-143237942D01*
X273494685Y-142237942D02*
X273780400Y-142095085D01*
X273923257Y-141809371D01*
X273923257Y-139237942D01*
X272637542Y-140237942D02*
X271923257Y-142237942D01*
X271208971Y-140237942D01*
X268780400Y-142237942D02*
X268780400Y-140666514D01*
X268923257Y-140380800D01*
X269208971Y-140237942D01*
X269780400Y-140237942D01*
X270066114Y-140380800D01*
X268780400Y-142095085D02*
X269066114Y-142237942D01*
X269780400Y-142237942D01*
X270066114Y-142095085D01*
X270208971Y-141809371D01*
X270208971Y-141523657D01*
X270066114Y-141237942D01*
X269780400Y-141095085D01*
X269066114Y-141095085D01*
X268780400Y-140952228D01*
X267351828Y-142237942D02*
X267351828Y-140237942D01*
X267351828Y-139237942D02*
X267494685Y-139380800D01*
X267351828Y-139523657D01*
X267208971Y-139380800D01*
X267351828Y-139237942D01*
X267351828Y-139523657D01*
X265923257Y-140237942D02*
X265923257Y-142237942D01*
X265923257Y-140523657D02*
X265780400Y-140380800D01*
X265494685Y-140237942D01*
X265066114Y-140237942D01*
X264780400Y-140380800D01*
X264637542Y-140666514D01*
X264637542Y-142237942D01*
X261208971Y-140237942D02*
X260494685Y-142237942D01*
X259780400Y-140237942D01*
X257351828Y-142237942D02*
X257351828Y-140666514D01*
X257494685Y-140380800D01*
X257780400Y-140237942D01*
X258351828Y-140237942D01*
X258637542Y-140380800D01*
X257351828Y-142095085D02*
X257637542Y-142237942D01*
X258351828Y-142237942D01*
X258637542Y-142095085D01*
X258780400Y-141809371D01*
X258780400Y-141523657D01*
X258637542Y-141237942D01*
X258351828Y-141095085D01*
X257637542Y-141095085D01*
X257351828Y-140952228D01*
X255923257Y-140237942D02*
X255923257Y-142237942D01*
X255923257Y-140523657D02*
X255780400Y-140380800D01*
X255494685Y-140237942D01*
X255066114Y-140237942D01*
X254780400Y-140380800D01*
X254637542Y-140666514D01*
X254637542Y-142237942D01*
X250923257Y-142237942D02*
X250923257Y-140237942D01*
X250923257Y-139237942D02*
X251066114Y-139380800D01*
X250923257Y-139523657D01*
X250780400Y-139380800D01*
X250923257Y-139237942D01*
X250923257Y-139523657D01*
X249494685Y-140237942D02*
X249494685Y-142237942D01*
X249494685Y-140523657D02*
X249351828Y-140380800D01*
X249066114Y-140237942D01*
X248637542Y-140237942D01*
X248351828Y-140380800D01*
X248208971Y-140666514D01*
X248208971Y-142237942D01*
X246780400Y-142237942D02*
X246780400Y-140237942D01*
X246780400Y-139237942D02*
X246923257Y-139380800D01*
X246780400Y-139523657D01*
X246637542Y-139380800D01*
X246780400Y-139237942D01*
X246780400Y-139523657D01*
X245351828Y-142237942D02*
X245351828Y-140237942D01*
X245351828Y-139237942D02*
X245494685Y-139380800D01*
X245351828Y-139523657D01*
X245208971Y-139380800D01*
X245351828Y-139237942D01*
X245351828Y-139523657D01*
X244351828Y-140237942D02*
X243208971Y-140237942D01*
X243923257Y-139237942D02*
X243923257Y-141809371D01*
X243780400Y-142095085D01*
X243494685Y-142237942D01*
X243208971Y-142237942D01*
X240923257Y-140237942D02*
X240923257Y-142237942D01*
X242208971Y-140237942D02*
X242208971Y-141809371D01*
X242066114Y-142095085D01*
X241780400Y-142237942D01*
X241351828Y-142237942D01*
X241066114Y-142095085D01*
X240923257Y-141952228D01*
D11*
%TO.C,DMX_connector1*%
X264669200Y-48377600D02*
X264669200Y-53877600D01*
X267419200Y-53877600D02*
X264669200Y-53877600D01*
X267419200Y-53877600D02*
X267419200Y-61377600D01*
X286409200Y-53877600D02*
X283659200Y-53877600D01*
X283659200Y-61377600D02*
X267419200Y-61377600D01*
X286409200Y-48377600D02*
X286409200Y-53877600D01*
X283659200Y-53877600D02*
X283659200Y-61377600D01*
X286659200Y-38937600D02*
X264419200Y-38937600D01*
X288159200Y-41637600D02*
X286659200Y-41637600D01*
X264419200Y-41637600D02*
X262619200Y-41637600D01*
X264419200Y-41637600D02*
X264419200Y-38937600D01*
X286659200Y-41637600D02*
X286659200Y-38937600D01*
X262619200Y-48377600D02*
X264669200Y-48377600D01*
X286409200Y-48377600D02*
X288159200Y-48377600D01*
X288159200Y-41637600D02*
X288159200Y-48377600D01*
X262619200Y-41637600D02*
X262619200Y-48377600D01*
D12*
%TO.C,MIDI_OUT2*%
X260639560Y-39913560D02*
X260639560Y-39413180D01*
X239638840Y-38912800D02*
X239638840Y-39413180D01*
X241640360Y-40411400D02*
X241640360Y-39913560D01*
X258638040Y-39913560D02*
X258638040Y-40411400D01*
X241139980Y-40411400D02*
X241640360Y-40411400D01*
X259138420Y-40411400D02*
X258638040Y-40411400D01*
X241139980Y-39913560D02*
X260639560Y-39913560D01*
X241139980Y-39413180D02*
X241139980Y-39913560D01*
X239638840Y-39413180D02*
X241139980Y-39413180D01*
X259138420Y-38912800D02*
X239638840Y-38912800D01*
X259138420Y-39413180D02*
X259138420Y-38912800D01*
X260639560Y-39413180D02*
X259138420Y-39413180D01*
X252138180Y-57411620D02*
X252138180Y-55412640D01*
X251640340Y-57912000D02*
X252138180Y-57411620D01*
X248638060Y-57912000D02*
X251640340Y-57912000D01*
X248140220Y-57411620D02*
X248140220Y-55412640D01*
X248638060Y-57912000D02*
X248140220Y-57411620D01*
X255638300Y-55412640D02*
X252138180Y-55412640D01*
X255638300Y-57411620D02*
X255638300Y-55412640D01*
X256138680Y-57912000D02*
X255638300Y-57411620D01*
X256639060Y-57912000D02*
X256138680Y-57912000D01*
X258638040Y-57912000D02*
X256639060Y-57912000D01*
X259138420Y-57411620D02*
X258638040Y-57912000D01*
X259138420Y-57411620D02*
X259138420Y-40411400D01*
X244640100Y-55412640D02*
X248140220Y-55412640D01*
X244640100Y-57411620D02*
X244640100Y-55412640D01*
X244139720Y-57912000D02*
X244640100Y-57411620D01*
X241640360Y-57912000D02*
X244139720Y-57912000D01*
X241139980Y-57411620D02*
X241640360Y-57912000D01*
X241139980Y-57411620D02*
X241139980Y-40411400D01*
X239638840Y-39161720D02*
X259138420Y-39161720D01*
X259138420Y-39413180D02*
X241139980Y-39413180D01*
X241139980Y-39662100D02*
X260639560Y-39662100D01*
%TO.C,MIDI_OUT1*%
X237881160Y-39761160D02*
X237881160Y-39260780D01*
X216880440Y-38760400D02*
X216880440Y-39260780D01*
X218881960Y-40259000D02*
X218881960Y-39761160D01*
X235879640Y-39761160D02*
X235879640Y-40259000D01*
X218381580Y-40259000D02*
X218881960Y-40259000D01*
X236380020Y-40259000D02*
X235879640Y-40259000D01*
X218381580Y-39761160D02*
X237881160Y-39761160D01*
X218381580Y-39260780D02*
X218381580Y-39761160D01*
X216880440Y-39260780D02*
X218381580Y-39260780D01*
X236380020Y-38760400D02*
X216880440Y-38760400D01*
X236380020Y-39260780D02*
X236380020Y-38760400D01*
X237881160Y-39260780D02*
X236380020Y-39260780D01*
X229379780Y-57259220D02*
X229379780Y-55260240D01*
X228881940Y-57759600D02*
X229379780Y-57259220D01*
X225879660Y-57759600D02*
X228881940Y-57759600D01*
X225381820Y-57259220D02*
X225381820Y-55260240D01*
X225879660Y-57759600D02*
X225381820Y-57259220D01*
X232879900Y-55260240D02*
X229379780Y-55260240D01*
X232879900Y-57259220D02*
X232879900Y-55260240D01*
X233380280Y-57759600D02*
X232879900Y-57259220D01*
X233880660Y-57759600D02*
X233380280Y-57759600D01*
X235879640Y-57759600D02*
X233880660Y-57759600D01*
X236380020Y-57259220D02*
X235879640Y-57759600D01*
X236380020Y-57259220D02*
X236380020Y-40259000D01*
X221881700Y-55260240D02*
X225381820Y-55260240D01*
X221881700Y-57259220D02*
X221881700Y-55260240D01*
X221381320Y-57759600D02*
X221881700Y-57259220D01*
X218881960Y-57759600D02*
X221381320Y-57759600D01*
X218381580Y-57259220D02*
X218881960Y-57759600D01*
X218381580Y-57259220D02*
X218381580Y-40259000D01*
X216880440Y-39009320D02*
X236380020Y-39009320D01*
X236380020Y-39260780D02*
X218381580Y-39260780D01*
X218381580Y-39509700D02*
X237881160Y-39509700D01*
%TO.C,MIDI_IN1*%
X215478360Y-39761160D02*
X215478360Y-39260780D01*
X194477640Y-38760400D02*
X194477640Y-39260780D01*
X196479160Y-40259000D02*
X196479160Y-39761160D01*
X213476840Y-39761160D02*
X213476840Y-40259000D01*
X195978780Y-40259000D02*
X196479160Y-40259000D01*
X213977220Y-40259000D02*
X213476840Y-40259000D01*
X195978780Y-39761160D02*
X215478360Y-39761160D01*
X195978780Y-39260780D02*
X195978780Y-39761160D01*
X194477640Y-39260780D02*
X195978780Y-39260780D01*
X213977220Y-38760400D02*
X194477640Y-38760400D01*
X213977220Y-39260780D02*
X213977220Y-38760400D01*
X215478360Y-39260780D02*
X213977220Y-39260780D01*
X206976980Y-57259220D02*
X206976980Y-55260240D01*
X206479140Y-57759600D02*
X206976980Y-57259220D01*
X203476860Y-57759600D02*
X206479140Y-57759600D01*
X202979020Y-57259220D02*
X202979020Y-55260240D01*
X203476860Y-57759600D02*
X202979020Y-57259220D01*
X210477100Y-55260240D02*
X206976980Y-55260240D01*
X210477100Y-57259220D02*
X210477100Y-55260240D01*
X210977480Y-57759600D02*
X210477100Y-57259220D01*
X211477860Y-57759600D02*
X210977480Y-57759600D01*
X213476840Y-57759600D02*
X211477860Y-57759600D01*
X213977220Y-57259220D02*
X213476840Y-57759600D01*
X213977220Y-57259220D02*
X213977220Y-40259000D01*
X199478900Y-55260240D02*
X202979020Y-55260240D01*
X199478900Y-57259220D02*
X199478900Y-55260240D01*
X198978520Y-57759600D02*
X199478900Y-57259220D01*
X196479160Y-57759600D02*
X198978520Y-57759600D01*
X195978780Y-57259220D02*
X196479160Y-57759600D01*
X195978780Y-57259220D02*
X195978780Y-40259000D01*
X194477640Y-39009320D02*
X213977220Y-39009320D01*
X213977220Y-39260780D02*
X195978780Y-39260780D01*
X195978780Y-39509700D02*
X215478360Y-39509700D01*
D11*
%TO.C,J1*%
X189976000Y-47184000D02*
X191626000Y-47184000D01*
X191626000Y-47184000D02*
X191626000Y-57464000D01*
X191626000Y-57464000D02*
X186326000Y-57464000D01*
X186326000Y-57464000D02*
X186326000Y-47184000D01*
X186326000Y-47184000D02*
X187976000Y-47184000D01*
X187976000Y-47184000D02*
G75*
G03*
X189976000Y-47184000I1000000J0D01*
G01*
%TO.C,D1*%
X191197600Y-58925600D02*
X191197600Y-61165600D01*
X191197600Y-61165600D02*
X186957600Y-61165600D01*
X186957600Y-61165600D02*
X186957600Y-58925600D01*
X186957600Y-58925600D02*
X191197600Y-58925600D01*
X191847600Y-60045600D02*
X191197600Y-60045600D01*
X186307600Y-60045600D02*
X186957600Y-60045600D01*
X190477600Y-58925600D02*
X190477600Y-61165600D01*
X190357600Y-58925600D02*
X190357600Y-61165600D01*
X190597600Y-58925600D02*
X190597600Y-61165600D01*
%TO.C,U1*%
X265184400Y-73974000D02*
X263534400Y-73974000D01*
X265184400Y-63694000D02*
X265184400Y-73974000D01*
X259884400Y-63694000D02*
X265184400Y-63694000D01*
X259884400Y-73974000D02*
X259884400Y-63694000D01*
X261534400Y-73974000D02*
X259884400Y-73974000D01*
X263534400Y-73974000D02*
G75*
G03*
X261534400Y-73974000I-1000000J0D01*
G01*
%TO.C,RLeft1*%
X181286400Y-136193200D02*
X181286400Y-133453200D01*
X181286400Y-133453200D02*
X187826400Y-133453200D01*
X187826400Y-133453200D02*
X187826400Y-136193200D01*
X187826400Y-136193200D02*
X181286400Y-136193200D01*
X180516400Y-134823200D02*
X181286400Y-134823200D01*
X188596400Y-134823200D02*
X187826400Y-134823200D01*
%TO.C,RLeft2*%
X179762400Y-155344800D02*
X179762400Y-152604800D01*
X179762400Y-152604800D02*
X186302400Y-152604800D01*
X186302400Y-152604800D02*
X186302400Y-155344800D01*
X186302400Y-155344800D02*
X179762400Y-155344800D01*
X178992400Y-153974800D02*
X179762400Y-153974800D01*
X187072400Y-153974800D02*
X186302400Y-153974800D01*
%TO.C,RLeft3*%
X187826400Y-129897200D02*
X187826400Y-132637200D01*
X187826400Y-132637200D02*
X181286400Y-132637200D01*
X181286400Y-132637200D02*
X181286400Y-129897200D01*
X181286400Y-129897200D02*
X187826400Y-129897200D01*
X188596400Y-131267200D02*
X187826400Y-131267200D01*
X180516400Y-131267200D02*
X181286400Y-131267200D01*
%TO.C,RLeft4*%
X187021600Y-157276800D02*
X186251600Y-157276800D01*
X178941600Y-157276800D02*
X179711600Y-157276800D01*
X186251600Y-158646800D02*
X179711600Y-158646800D01*
X186251600Y-155906800D02*
X186251600Y-158646800D01*
X179711600Y-155906800D02*
X186251600Y-155906800D01*
X179711600Y-158646800D02*
X179711600Y-155906800D01*
%TO.C,RMidiIn1*%
X201657200Y-64768400D02*
X201657200Y-62028400D01*
X201657200Y-62028400D02*
X208197200Y-62028400D01*
X208197200Y-62028400D02*
X208197200Y-64768400D01*
X208197200Y-64768400D02*
X201657200Y-64768400D01*
X200887200Y-63398400D02*
X201657200Y-63398400D01*
X208967200Y-63398400D02*
X208197200Y-63398400D01*
%TO.C,RMIdiIn270*%
X208967200Y-60147200D02*
X208197200Y-60147200D01*
X200887200Y-60147200D02*
X201657200Y-60147200D01*
X208197200Y-61517200D02*
X201657200Y-61517200D01*
X208197200Y-58777200D02*
X208197200Y-61517200D01*
X201657200Y-58777200D02*
X208197200Y-58777200D01*
X201657200Y-61517200D02*
X201657200Y-58777200D01*
%TO.C,RMidiOut3*%
X252604400Y-64008000D02*
X251834400Y-64008000D01*
X244524400Y-64008000D02*
X245294400Y-64008000D01*
X251834400Y-65378000D02*
X245294400Y-65378000D01*
X251834400Y-62638000D02*
X251834400Y-65378000D01*
X245294400Y-62638000D02*
X251834400Y-62638000D01*
X245294400Y-65378000D02*
X245294400Y-62638000D01*
%TO.C,RMidiOut4*%
X251986800Y-59386800D02*
X251986800Y-62126800D01*
X251986800Y-62126800D02*
X245446800Y-62126800D01*
X245446800Y-62126800D02*
X245446800Y-59386800D01*
X245446800Y-59386800D02*
X251986800Y-59386800D01*
X252756800Y-60756800D02*
X251986800Y-60756800D01*
X244676800Y-60756800D02*
X245446800Y-60756800D01*
%TO.C,ROled1*%
X177260000Y-80824400D02*
X177260000Y-83564400D01*
X177260000Y-83564400D02*
X170720000Y-83564400D01*
X170720000Y-83564400D02*
X170720000Y-80824400D01*
X170720000Y-80824400D02*
X177260000Y-80824400D01*
X178030000Y-82194400D02*
X177260000Y-82194400D01*
X169950000Y-82194400D02*
X170720000Y-82194400D01*
%TO.C,ROled2*%
X178030000Y-85394800D02*
X177260000Y-85394800D01*
X169950000Y-85394800D02*
X170720000Y-85394800D01*
X177260000Y-86764800D02*
X170720000Y-86764800D01*
X177260000Y-84024800D02*
X177260000Y-86764800D01*
X170720000Y-84024800D02*
X177260000Y-84024800D01*
X170720000Y-86764800D02*
X170720000Y-84024800D01*
%TO.C,RRotRight1*%
X209124800Y-135075600D02*
X209124800Y-132335600D01*
X209124800Y-132335600D02*
X215664800Y-132335600D01*
X215664800Y-132335600D02*
X215664800Y-135075600D01*
X215664800Y-135075600D02*
X209124800Y-135075600D01*
X208354800Y-133705600D02*
X209124800Y-133705600D01*
X216434800Y-133705600D02*
X215664800Y-133705600D01*
%TO.C,RRotRight2*%
X216282400Y-152704800D02*
X215512400Y-152704800D01*
X208202400Y-152704800D02*
X208972400Y-152704800D01*
X215512400Y-154074800D02*
X208972400Y-154074800D01*
X215512400Y-151334800D02*
X215512400Y-154074800D01*
X208972400Y-151334800D02*
X215512400Y-151334800D01*
X208972400Y-154074800D02*
X208972400Y-151334800D01*
%TO.C,RRotRight3*%
X209074000Y-131926000D02*
X209074000Y-129186000D01*
X209074000Y-129186000D02*
X215614000Y-129186000D01*
X215614000Y-129186000D02*
X215614000Y-131926000D01*
X215614000Y-131926000D02*
X209074000Y-131926000D01*
X208304000Y-130556000D02*
X209074000Y-130556000D01*
X216384000Y-130556000D02*
X215614000Y-130556000D01*
%TO.C,RRotRight4*%
X216333200Y-156146500D02*
X215563200Y-156146500D01*
X208253200Y-156146500D02*
X209023200Y-156146500D01*
X215563200Y-157516500D02*
X209023200Y-157516500D01*
X215563200Y-154776500D02*
X215563200Y-157516500D01*
X209023200Y-154776500D02*
X215563200Y-154776500D01*
X209023200Y-157516500D02*
X209023200Y-154776500D01*
%TO.C,RSlide1*%
X268700000Y-172810500D02*
X268700000Y-175550500D01*
X268700000Y-175550500D02*
X262160000Y-175550500D01*
X262160000Y-175550500D02*
X262160000Y-172810500D01*
X262160000Y-172810500D02*
X268700000Y-172810500D01*
X269470000Y-174180500D02*
X268700000Y-174180500D01*
X261390000Y-174180500D02*
X262160000Y-174180500D01*
%TO.C,RTop1*%
X70537200Y-52717700D02*
X69767200Y-52717700D01*
X62457200Y-52717700D02*
X63227200Y-52717700D01*
X69767200Y-54087700D02*
X63227200Y-54087700D01*
X69767200Y-51347700D02*
X69767200Y-54087700D01*
X63227200Y-51347700D02*
X69767200Y-51347700D01*
X63227200Y-54087700D02*
X63227200Y-51347700D01*
%TO.C,RTop2*%
X70334000Y-71983600D02*
X69564000Y-71983600D01*
X62254000Y-71983600D02*
X63024000Y-71983600D01*
X69564000Y-73353600D02*
X63024000Y-73353600D01*
X69564000Y-70613600D02*
X69564000Y-73353600D01*
X63024000Y-70613600D02*
X69564000Y-70613600D01*
X63024000Y-73353600D02*
X63024000Y-70613600D01*
%TO.C,RTop3*%
X62508000Y-49377600D02*
X63278000Y-49377600D01*
X70588000Y-49377600D02*
X69818000Y-49377600D01*
X63278000Y-48007600D02*
X69818000Y-48007600D01*
X63278000Y-50747600D02*
X63278000Y-48007600D01*
X69818000Y-50747600D02*
X63278000Y-50747600D01*
X69818000Y-48007600D02*
X69818000Y-50747600D01*
%TO.C,RTop4*%
X62973200Y-76706400D02*
X62973200Y-73966400D01*
X62973200Y-73966400D02*
X69513200Y-73966400D01*
X69513200Y-73966400D02*
X69513200Y-76706400D01*
X69513200Y-76706400D02*
X62973200Y-76706400D01*
X62203200Y-75336400D02*
X62973200Y-75336400D01*
X70283200Y-75336400D02*
X69513200Y-75336400D01*
D13*
%TO.C,TEENSY1*%
X116962000Y-49022000D02*
X116962000Y-49022000D01*
X116962000Y-49122000D02*
X116962000Y-49122000D01*
X116962000Y-49022000D02*
X116962000Y-49022000D01*
X98552000Y-42672000D02*
X116332000Y-42672000D01*
X98552000Y-103632000D02*
X98552000Y-42672000D01*
X116332000Y-103632000D02*
X98552000Y-103632000D01*
X116332000Y-42672000D02*
X116332000Y-103632000D01*
X116962000Y-49122000D02*
G75*
G03*
X116962000Y-49022000I0J50000D01*
G01*
X116962000Y-49022000D02*
G75*
G03*
X116962000Y-49122000I0J-50000D01*
G01*
X116962000Y-49122000D02*
G75*
G03*
X116962000Y-49022000I0J50000D01*
G01*
D11*
%TO.C,CLeft1*%
X195818200Y-136396400D02*
X195818200Y-128656400D01*
X191176200Y-136396400D02*
X191176200Y-128656400D01*
X195818200Y-136396400D02*
X191176200Y-136396400D01*
X195818200Y-128656400D02*
X191176200Y-128656400D01*
%TO.C,CLeft2*%
X190160200Y-159278000D02*
X194802200Y-159278000D01*
X190160200Y-151538000D02*
X194802200Y-151538000D01*
X194802200Y-151538000D02*
X194802200Y-159278000D01*
X190160200Y-151538000D02*
X190160200Y-159278000D01*
%TO.C,CRight1*%
X218862200Y-128678000D02*
X218862200Y-136418000D01*
X223504200Y-128678000D02*
X223504200Y-136418000D01*
X218862200Y-128678000D02*
X223504200Y-128678000D01*
X218862200Y-136418000D02*
X223504200Y-136418000D01*
%TO.C,CRight2*%
X223453400Y-151211600D02*
X218811400Y-151211600D01*
X223453400Y-158951600D02*
X218811400Y-158951600D01*
X218811400Y-158951600D02*
X218811400Y-151211600D01*
X223453400Y-158951600D02*
X223453400Y-151211600D01*
%TO.C,CTop1*%
X78216200Y-47071600D02*
X73574200Y-47071600D01*
X78216200Y-54811600D02*
X73574200Y-54811600D01*
X73574200Y-54811600D02*
X73574200Y-47071600D01*
X78216200Y-54811600D02*
X78216200Y-47071600D01*
%TO.C,CTop2*%
X73675800Y-70410400D02*
X73675800Y-78150400D01*
X78317800Y-70410400D02*
X78317800Y-78150400D01*
X73675800Y-70410400D02*
X78317800Y-70410400D01*
X73675800Y-78150400D02*
X78317800Y-78150400D01*
%TO.C,RMax1=10*%
X272946800Y-73120000D02*
X270206800Y-73120000D01*
X270206800Y-73120000D02*
X270206800Y-66580000D01*
X270206800Y-66580000D02*
X272946800Y-66580000D01*
X272946800Y-66580000D02*
X272946800Y-73120000D01*
X271576800Y-73890000D02*
X271576800Y-73120000D01*
X271576800Y-65810000D02*
X271576800Y-66580000D01*
%TO.C,RMidiOut1=220*%
X224110800Y-65124000D02*
X224110800Y-62384000D01*
X224110800Y-62384000D02*
X230650800Y-62384000D01*
X230650800Y-62384000D02*
X230650800Y-65124000D01*
X230650800Y-65124000D02*
X224110800Y-65124000D01*
X223340800Y-63754000D02*
X224110800Y-63754000D01*
X231420800Y-63754000D02*
X230650800Y-63754000D01*
%TO.C,RMidiOut2*%
X224009200Y-61720400D02*
X224009200Y-58980400D01*
X224009200Y-58980400D02*
X230549200Y-58980400D01*
X230549200Y-58980400D02*
X230549200Y-61720400D01*
X230549200Y-61720400D02*
X224009200Y-61720400D01*
X223239200Y-60350400D02*
X224009200Y-60350400D01*
X231319200Y-60350400D02*
X230549200Y-60350400D01*
%TO.C,DMX_connector1*%
D14*
X281122380Y-45095257D02*
X280122380Y-45095257D01*
X280122380Y-45333352D01*
X280170000Y-45476209D01*
X280265238Y-45571447D01*
X280360476Y-45619066D01*
X280550952Y-45666685D01*
X280693809Y-45666685D01*
X280884285Y-45619066D01*
X280979523Y-45571447D01*
X281074761Y-45476209D01*
X281122380Y-45333352D01*
X281122380Y-45095257D01*
X281122380Y-46095257D02*
X280122380Y-46095257D01*
X280836666Y-46428590D01*
X280122380Y-46761923D01*
X281122380Y-46761923D01*
X280122380Y-47142876D02*
X281122380Y-47809542D01*
X280122380Y-47809542D02*
X281122380Y-47142876D01*
X281217619Y-47952400D02*
X281217619Y-48714304D01*
X281074761Y-49380971D02*
X281122380Y-49285733D01*
X281122380Y-49095257D01*
X281074761Y-49000019D01*
X281027142Y-48952400D01*
X280931904Y-48904780D01*
X280646190Y-48904780D01*
X280550952Y-48952400D01*
X280503333Y-49000019D01*
X280455714Y-49095257D01*
X280455714Y-49285733D01*
X280503333Y-49380971D01*
X281122380Y-49952400D02*
X281074761Y-49857161D01*
X281027142Y-49809542D01*
X280931904Y-49761923D01*
X280646190Y-49761923D01*
X280550952Y-49809542D01*
X280503333Y-49857161D01*
X280455714Y-49952400D01*
X280455714Y-50095257D01*
X280503333Y-50190495D01*
X280550952Y-50238114D01*
X280646190Y-50285733D01*
X280931904Y-50285733D01*
X281027142Y-50238114D01*
X281074761Y-50190495D01*
X281122380Y-50095257D01*
X281122380Y-49952400D01*
X280455714Y-50714304D02*
X281122380Y-50714304D01*
X280550952Y-50714304D02*
X280503333Y-50761923D01*
X280455714Y-50857161D01*
X280455714Y-51000019D01*
X280503333Y-51095257D01*
X280598571Y-51142876D01*
X281122380Y-51142876D01*
X280455714Y-51619066D02*
X281122380Y-51619066D01*
X280550952Y-51619066D02*
X280503333Y-51666685D01*
X280455714Y-51761923D01*
X280455714Y-51904780D01*
X280503333Y-52000019D01*
X280598571Y-52047638D01*
X281122380Y-52047638D01*
X281074761Y-52904780D02*
X281122380Y-52809542D01*
X281122380Y-52619066D01*
X281074761Y-52523828D01*
X280979523Y-52476209D01*
X280598571Y-52476209D01*
X280503333Y-52523828D01*
X280455714Y-52619066D01*
X280455714Y-52809542D01*
X280503333Y-52904780D01*
X280598571Y-52952400D01*
X280693809Y-52952400D01*
X280789047Y-52476209D01*
X281074761Y-53809542D02*
X281122380Y-53714304D01*
X281122380Y-53523828D01*
X281074761Y-53428590D01*
X281027142Y-53380971D01*
X280931904Y-53333352D01*
X280646190Y-53333352D01*
X280550952Y-53380971D01*
X280503333Y-53428590D01*
X280455714Y-53523828D01*
X280455714Y-53714304D01*
X280503333Y-53809542D01*
X280455714Y-54095257D02*
X280455714Y-54476209D01*
X280122380Y-54238114D02*
X280979523Y-54238114D01*
X281074761Y-54285733D01*
X281122380Y-54380971D01*
X281122380Y-54476209D01*
X281122380Y-54952400D02*
X281074761Y-54857161D01*
X281027142Y-54809542D01*
X280931904Y-54761923D01*
X280646190Y-54761923D01*
X280550952Y-54809542D01*
X280503333Y-54857161D01*
X280455714Y-54952400D01*
X280455714Y-55095257D01*
X280503333Y-55190495D01*
X280550952Y-55238114D01*
X280646190Y-55285733D01*
X280931904Y-55285733D01*
X281027142Y-55238114D01*
X281074761Y-55190495D01*
X281122380Y-55095257D01*
X281122380Y-54952400D01*
X281122380Y-55714304D02*
X280455714Y-55714304D01*
X280646190Y-55714304D02*
X280550952Y-55761923D01*
X280503333Y-55809542D01*
X280455714Y-55904780D01*
X280455714Y-56000019D01*
X281122380Y-56857161D02*
X281122380Y-56285733D01*
X281122380Y-56571447D02*
X280122380Y-56571447D01*
X280265238Y-56476209D01*
X280360476Y-56380971D01*
X280408095Y-56285733D01*
%TO.C,MIDI_OUT2*%
D12*
X255618342Y-38101088D02*
X255618342Y-36577088D01*
X255110342Y-37665660D01*
X254602342Y-36577088D01*
X254602342Y-38101088D01*
X253876628Y-38101088D02*
X253876628Y-36577088D01*
X253150914Y-38101088D02*
X253150914Y-36577088D01*
X252788057Y-36577088D01*
X252570342Y-36649660D01*
X252425200Y-36794802D01*
X252352628Y-36939945D01*
X252280057Y-37230231D01*
X252280057Y-37447945D01*
X252352628Y-37738231D01*
X252425200Y-37883374D01*
X252570342Y-38028517D01*
X252788057Y-38101088D01*
X253150914Y-38101088D01*
X251626914Y-38101088D02*
X251626914Y-36577088D01*
X251264057Y-38246231D02*
X250102914Y-38246231D01*
X249449771Y-36577088D02*
X249159485Y-36577088D01*
X249014342Y-36649660D01*
X248869200Y-36794802D01*
X248796628Y-37085088D01*
X248796628Y-37593088D01*
X248869200Y-37883374D01*
X249014342Y-38028517D01*
X249159485Y-38101088D01*
X249449771Y-38101088D01*
X249594914Y-38028517D01*
X249740057Y-37883374D01*
X249812628Y-37593088D01*
X249812628Y-37085088D01*
X249740057Y-36794802D01*
X249594914Y-36649660D01*
X249449771Y-36577088D01*
X248143485Y-36577088D02*
X248143485Y-37810802D01*
X248070914Y-37955945D01*
X247998342Y-38028517D01*
X247853200Y-38101088D01*
X247562914Y-38101088D01*
X247417771Y-38028517D01*
X247345200Y-37955945D01*
X247272628Y-37810802D01*
X247272628Y-36577088D01*
X246764628Y-36577088D02*
X245893771Y-36577088D01*
X246329200Y-38101088D02*
X246329200Y-36577088D01*
X245458342Y-36722231D02*
X245385771Y-36649660D01*
X245240628Y-36577088D01*
X244877771Y-36577088D01*
X244732628Y-36649660D01*
X244660057Y-36722231D01*
X244587485Y-36867374D01*
X244587485Y-37012517D01*
X244660057Y-37230231D01*
X245530914Y-38101088D01*
X244587485Y-38101088D01*
X252657428Y-48289028D02*
X252657428Y-46765028D01*
X252294571Y-46765028D01*
X252076857Y-46837600D01*
X251931714Y-46982742D01*
X251859142Y-47127885D01*
X251786571Y-47418171D01*
X251786571Y-47635885D01*
X251859142Y-47926171D01*
X251931714Y-48071314D01*
X252076857Y-48216457D01*
X252294571Y-48289028D01*
X252657428Y-48289028D01*
X251133428Y-48289028D02*
X251133428Y-46765028D01*
X250407714Y-48289028D02*
X250407714Y-46765028D01*
X249536857Y-48289028D01*
X249536857Y-46765028D01*
X248811142Y-47708457D02*
X247650000Y-47708457D01*
X246198571Y-46765028D02*
X246924285Y-46765028D01*
X246996857Y-47490742D01*
X246924285Y-47418171D01*
X246779142Y-47345600D01*
X246416285Y-47345600D01*
X246271142Y-47418171D01*
X246198571Y-47490742D01*
X246126000Y-47635885D01*
X246126000Y-47998742D01*
X246198571Y-48143885D01*
X246271142Y-48216457D01*
X246416285Y-48289028D01*
X246779142Y-48289028D01*
X246924285Y-48216457D01*
X246996857Y-48143885D01*
%TO.C,MIDI_OUT1*%
X232859942Y-37948688D02*
X232859942Y-36424688D01*
X232351942Y-37513260D01*
X231843942Y-36424688D01*
X231843942Y-37948688D01*
X231118228Y-37948688D02*
X231118228Y-36424688D01*
X230392514Y-37948688D02*
X230392514Y-36424688D01*
X230029657Y-36424688D01*
X229811942Y-36497260D01*
X229666800Y-36642402D01*
X229594228Y-36787545D01*
X229521657Y-37077831D01*
X229521657Y-37295545D01*
X229594228Y-37585831D01*
X229666800Y-37730974D01*
X229811942Y-37876117D01*
X230029657Y-37948688D01*
X230392514Y-37948688D01*
X228868514Y-37948688D02*
X228868514Y-36424688D01*
X228505657Y-38093831D02*
X227344514Y-38093831D01*
X226691371Y-36424688D02*
X226401085Y-36424688D01*
X226255942Y-36497260D01*
X226110800Y-36642402D01*
X226038228Y-36932688D01*
X226038228Y-37440688D01*
X226110800Y-37730974D01*
X226255942Y-37876117D01*
X226401085Y-37948688D01*
X226691371Y-37948688D01*
X226836514Y-37876117D01*
X226981657Y-37730974D01*
X227054228Y-37440688D01*
X227054228Y-36932688D01*
X226981657Y-36642402D01*
X226836514Y-36497260D01*
X226691371Y-36424688D01*
X225385085Y-36424688D02*
X225385085Y-37658402D01*
X225312514Y-37803545D01*
X225239942Y-37876117D01*
X225094800Y-37948688D01*
X224804514Y-37948688D01*
X224659371Y-37876117D01*
X224586800Y-37803545D01*
X224514228Y-37658402D01*
X224514228Y-36424688D01*
X224006228Y-36424688D02*
X223135371Y-36424688D01*
X223570800Y-37948688D02*
X223570800Y-36424688D01*
X221829085Y-37948688D02*
X222699942Y-37948688D01*
X222264514Y-37948688D02*
X222264514Y-36424688D01*
X222409657Y-36642402D01*
X222554800Y-36787545D01*
X222699942Y-36860117D01*
X230610228Y-48695428D02*
X230610228Y-47171428D01*
X230247371Y-47171428D01*
X230029657Y-47244000D01*
X229884514Y-47389142D01*
X229811942Y-47534285D01*
X229739371Y-47824571D01*
X229739371Y-48042285D01*
X229811942Y-48332571D01*
X229884514Y-48477714D01*
X230029657Y-48622857D01*
X230247371Y-48695428D01*
X230610228Y-48695428D01*
X229086228Y-48695428D02*
X229086228Y-47171428D01*
X228360514Y-48695428D02*
X228360514Y-47171428D01*
X227489657Y-48695428D01*
X227489657Y-47171428D01*
X226763942Y-48114857D02*
X225602800Y-48114857D01*
X224151371Y-47171428D02*
X224877085Y-47171428D01*
X224949657Y-47897142D01*
X224877085Y-47824571D01*
X224731942Y-47752000D01*
X224369085Y-47752000D01*
X224223942Y-47824571D01*
X224151371Y-47897142D01*
X224078800Y-48042285D01*
X224078800Y-48405142D01*
X224151371Y-48550285D01*
X224223942Y-48622857D01*
X224369085Y-48695428D01*
X224731942Y-48695428D01*
X224877085Y-48622857D01*
X224949657Y-48550285D01*
%TO.C,MIDI_IN1*%
X209441142Y-37948688D02*
X209441142Y-36424688D01*
X208933142Y-37513260D01*
X208425142Y-36424688D01*
X208425142Y-37948688D01*
X207699428Y-37948688D02*
X207699428Y-36424688D01*
X206973714Y-37948688D02*
X206973714Y-36424688D01*
X206610857Y-36424688D01*
X206393142Y-36497260D01*
X206248000Y-36642402D01*
X206175428Y-36787545D01*
X206102857Y-37077831D01*
X206102857Y-37295545D01*
X206175428Y-37585831D01*
X206248000Y-37730974D01*
X206393142Y-37876117D01*
X206610857Y-37948688D01*
X206973714Y-37948688D01*
X205449714Y-37948688D02*
X205449714Y-36424688D01*
X205086857Y-38093831D02*
X203925714Y-38093831D01*
X203562857Y-37948688D02*
X203562857Y-36424688D01*
X202837142Y-37948688D02*
X202837142Y-36424688D01*
X201966285Y-37948688D01*
X201966285Y-36424688D01*
X200442285Y-37948688D02*
X201313142Y-37948688D01*
X200877714Y-37948688D02*
X200877714Y-36424688D01*
X201022857Y-36642402D01*
X201168000Y-36787545D01*
X201313142Y-36860117D01*
X208105828Y-49000228D02*
X208105828Y-47476228D01*
X207742971Y-47476228D01*
X207525257Y-47548800D01*
X207380114Y-47693942D01*
X207307542Y-47839085D01*
X207234971Y-48129371D01*
X207234971Y-48347085D01*
X207307542Y-48637371D01*
X207380114Y-48782514D01*
X207525257Y-48927657D01*
X207742971Y-49000228D01*
X208105828Y-49000228D01*
X206581828Y-49000228D02*
X206581828Y-47476228D01*
X205856114Y-49000228D02*
X205856114Y-47476228D01*
X204985257Y-49000228D01*
X204985257Y-47476228D01*
X204259542Y-48419657D02*
X203098400Y-48419657D01*
X201646971Y-47476228D02*
X202372685Y-47476228D01*
X202445257Y-48201942D01*
X202372685Y-48129371D01*
X202227542Y-48056800D01*
X201864685Y-48056800D01*
X201719542Y-48129371D01*
X201646971Y-48201942D01*
X201574400Y-48347085D01*
X201574400Y-48709942D01*
X201646971Y-48855085D01*
X201719542Y-48927657D01*
X201864685Y-49000228D01*
X202227542Y-49000228D01*
X202372685Y-48927657D01*
X202445257Y-48855085D01*
%TO.C,J1*%
D14*
X190325333Y-48779180D02*
X190325333Y-49493466D01*
X190372952Y-49636323D01*
X190468190Y-49731561D01*
X190611047Y-49779180D01*
X190706285Y-49779180D01*
X189325333Y-49779180D02*
X189896761Y-49779180D01*
X189611047Y-49779180D02*
X189611047Y-48779180D01*
X189706285Y-48922038D01*
X189801523Y-49017276D01*
X189896761Y-49064895D01*
%TO.C,D1*%
X189460095Y-60599580D02*
X189460095Y-59599580D01*
X189222000Y-59599580D01*
X189079142Y-59647200D01*
X188983904Y-59742438D01*
X188936285Y-59837676D01*
X188888666Y-60028152D01*
X188888666Y-60171009D01*
X188936285Y-60361485D01*
X188983904Y-60456723D01*
X189079142Y-60551961D01*
X189222000Y-60599580D01*
X189460095Y-60599580D01*
X187936285Y-60599580D02*
X188507714Y-60599580D01*
X188222000Y-60599580D02*
X188222000Y-59599580D01*
X188317238Y-59742438D01*
X188412476Y-59837676D01*
X188507714Y-59885295D01*
X193555904Y-60497980D02*
X193555904Y-59497980D01*
X192984476Y-60497980D02*
X193413047Y-59926552D01*
X192984476Y-59497980D02*
X193555904Y-60069409D01*
%TO.C,U1*%
X263245504Y-69149980D02*
X263245504Y-69959504D01*
X263197885Y-70054742D01*
X263150266Y-70102361D01*
X263055028Y-70149980D01*
X262864552Y-70149980D01*
X262769314Y-70102361D01*
X262721695Y-70054742D01*
X262674076Y-69959504D01*
X262674076Y-69149980D01*
X261674076Y-70149980D02*
X262245504Y-70149980D01*
X261959790Y-70149980D02*
X261959790Y-69149980D01*
X262055028Y-69292838D01*
X262150266Y-69388076D01*
X262245504Y-69435695D01*
%TO.C,RLeft1*%
X186280228Y-135732780D02*
X186613561Y-135256590D01*
X186851657Y-135732780D02*
X186851657Y-134732780D01*
X186470704Y-134732780D01*
X186375466Y-134780400D01*
X186327847Y-134828019D01*
X186280228Y-134923257D01*
X186280228Y-135066114D01*
X186327847Y-135161352D01*
X186375466Y-135208971D01*
X186470704Y-135256590D01*
X186851657Y-135256590D01*
X185375466Y-135732780D02*
X185851657Y-135732780D01*
X185851657Y-134732780D01*
X184661180Y-135685161D02*
X184756419Y-135732780D01*
X184946895Y-135732780D01*
X185042133Y-135685161D01*
X185089752Y-135589923D01*
X185089752Y-135208971D01*
X185042133Y-135113733D01*
X184946895Y-135066114D01*
X184756419Y-135066114D01*
X184661180Y-135113733D01*
X184613561Y-135208971D01*
X184613561Y-135304209D01*
X185089752Y-135399447D01*
X184327847Y-135066114D02*
X183946895Y-135066114D01*
X184184990Y-135732780D02*
X184184990Y-134875638D01*
X184137371Y-134780400D01*
X184042133Y-134732780D01*
X183946895Y-134732780D01*
X183756419Y-135066114D02*
X183375466Y-135066114D01*
X183613561Y-134732780D02*
X183613561Y-135589923D01*
X183565942Y-135685161D01*
X183470704Y-135732780D01*
X183375466Y-135732780D01*
X182518323Y-135732780D02*
X183089752Y-135732780D01*
X182804038Y-135732780D02*
X182804038Y-134732780D01*
X182899276Y-134875638D01*
X182994514Y-134970876D01*
X183089752Y-135018495D01*
%TO.C,RLeft2*%
X184400628Y-154782780D02*
X184733961Y-154306590D01*
X184972057Y-154782780D02*
X184972057Y-153782780D01*
X184591104Y-153782780D01*
X184495866Y-153830400D01*
X184448247Y-153878019D01*
X184400628Y-153973257D01*
X184400628Y-154116114D01*
X184448247Y-154211352D01*
X184495866Y-154258971D01*
X184591104Y-154306590D01*
X184972057Y-154306590D01*
X183495866Y-154782780D02*
X183972057Y-154782780D01*
X183972057Y-153782780D01*
X182781580Y-154735161D02*
X182876819Y-154782780D01*
X183067295Y-154782780D01*
X183162533Y-154735161D01*
X183210152Y-154639923D01*
X183210152Y-154258971D01*
X183162533Y-154163733D01*
X183067295Y-154116114D01*
X182876819Y-154116114D01*
X182781580Y-154163733D01*
X182733961Y-154258971D01*
X182733961Y-154354209D01*
X183210152Y-154449447D01*
X182448247Y-154116114D02*
X182067295Y-154116114D01*
X182305390Y-154782780D02*
X182305390Y-153925638D01*
X182257771Y-153830400D01*
X182162533Y-153782780D01*
X182067295Y-153782780D01*
X181876819Y-154116114D02*
X181495866Y-154116114D01*
X181733961Y-153782780D02*
X181733961Y-154639923D01*
X181686342Y-154735161D01*
X181591104Y-154782780D01*
X181495866Y-154782780D01*
X181210152Y-153878019D02*
X181162533Y-153830400D01*
X181067295Y-153782780D01*
X180829200Y-153782780D01*
X180733961Y-153830400D01*
X180686342Y-153878019D01*
X180638723Y-153973257D01*
X180638723Y-154068495D01*
X180686342Y-154211352D01*
X181257771Y-154782780D01*
X180638723Y-154782780D01*
%TO.C,RLeft3*%
X185823028Y-131567180D02*
X186156361Y-131090990D01*
X186394457Y-131567180D02*
X186394457Y-130567180D01*
X186013504Y-130567180D01*
X185918266Y-130614800D01*
X185870647Y-130662419D01*
X185823028Y-130757657D01*
X185823028Y-130900514D01*
X185870647Y-130995752D01*
X185918266Y-131043371D01*
X186013504Y-131090990D01*
X186394457Y-131090990D01*
X184918266Y-131567180D02*
X185394457Y-131567180D01*
X185394457Y-130567180D01*
X184203980Y-131519561D02*
X184299219Y-131567180D01*
X184489695Y-131567180D01*
X184584933Y-131519561D01*
X184632552Y-131424323D01*
X184632552Y-131043371D01*
X184584933Y-130948133D01*
X184489695Y-130900514D01*
X184299219Y-130900514D01*
X184203980Y-130948133D01*
X184156361Y-131043371D01*
X184156361Y-131138609D01*
X184632552Y-131233847D01*
X183870647Y-130900514D02*
X183489695Y-130900514D01*
X183727790Y-131567180D02*
X183727790Y-130710038D01*
X183680171Y-130614800D01*
X183584933Y-130567180D01*
X183489695Y-130567180D01*
X183299219Y-130900514D02*
X182918266Y-130900514D01*
X183156361Y-130567180D02*
X183156361Y-131424323D01*
X183108742Y-131519561D01*
X183013504Y-131567180D01*
X182918266Y-131567180D01*
X182680171Y-130567180D02*
X182061123Y-130567180D01*
X182394457Y-130948133D01*
X182251600Y-130948133D01*
X182156361Y-130995752D01*
X182108742Y-131043371D01*
X182061123Y-131138609D01*
X182061123Y-131376704D01*
X182108742Y-131471942D01*
X182156361Y-131519561D01*
X182251600Y-131567180D01*
X182537314Y-131567180D01*
X182632552Y-131519561D01*
X182680171Y-131471942D01*
%TO.C,RLeft4*%
X184553028Y-157779980D02*
X184886361Y-157303790D01*
X185124457Y-157779980D02*
X185124457Y-156779980D01*
X184743504Y-156779980D01*
X184648266Y-156827600D01*
X184600647Y-156875219D01*
X184553028Y-156970457D01*
X184553028Y-157113314D01*
X184600647Y-157208552D01*
X184648266Y-157256171D01*
X184743504Y-157303790D01*
X185124457Y-157303790D01*
X183648266Y-157779980D02*
X184124457Y-157779980D01*
X184124457Y-156779980D01*
X182933980Y-157732361D02*
X183029219Y-157779980D01*
X183219695Y-157779980D01*
X183314933Y-157732361D01*
X183362552Y-157637123D01*
X183362552Y-157256171D01*
X183314933Y-157160933D01*
X183219695Y-157113314D01*
X183029219Y-157113314D01*
X182933980Y-157160933D01*
X182886361Y-157256171D01*
X182886361Y-157351409D01*
X183362552Y-157446647D01*
X182600647Y-157113314D02*
X182219695Y-157113314D01*
X182457790Y-157779980D02*
X182457790Y-156922838D01*
X182410171Y-156827600D01*
X182314933Y-156779980D01*
X182219695Y-156779980D01*
X182029219Y-157113314D02*
X181648266Y-157113314D01*
X181886361Y-156779980D02*
X181886361Y-157637123D01*
X181838742Y-157732361D01*
X181743504Y-157779980D01*
X181648266Y-157779980D01*
X180886361Y-157113314D02*
X180886361Y-157779980D01*
X181124457Y-156732361D02*
X181362552Y-157446647D01*
X180743504Y-157446647D01*
%TO.C,RMidiIn1*%
X207182742Y-64358780D02*
X207516076Y-63882590D01*
X207754171Y-64358780D02*
X207754171Y-63358780D01*
X207373219Y-63358780D01*
X207277980Y-63406400D01*
X207230361Y-63454019D01*
X207182742Y-63549257D01*
X207182742Y-63692114D01*
X207230361Y-63787352D01*
X207277980Y-63834971D01*
X207373219Y-63882590D01*
X207754171Y-63882590D01*
X206754171Y-64358780D02*
X206754171Y-63358780D01*
X206420838Y-64073066D01*
X206087504Y-63358780D01*
X206087504Y-64358780D01*
X205611314Y-64358780D02*
X205611314Y-63692114D01*
X205611314Y-63358780D02*
X205658933Y-63406400D01*
X205611314Y-63454019D01*
X205563695Y-63406400D01*
X205611314Y-63358780D01*
X205611314Y-63454019D01*
X204706552Y-64358780D02*
X204706552Y-63358780D01*
X204706552Y-64311161D02*
X204801790Y-64358780D01*
X204992266Y-64358780D01*
X205087504Y-64311161D01*
X205135123Y-64263542D01*
X205182742Y-64168304D01*
X205182742Y-63882590D01*
X205135123Y-63787352D01*
X205087504Y-63739733D01*
X204992266Y-63692114D01*
X204801790Y-63692114D01*
X204706552Y-63739733D01*
X204230361Y-64358780D02*
X204230361Y-63692114D01*
X204230361Y-63358780D02*
X204277980Y-63406400D01*
X204230361Y-63454019D01*
X204182742Y-63406400D01*
X204230361Y-63358780D01*
X204230361Y-63454019D01*
X203754171Y-64358780D02*
X203754171Y-63358780D01*
X203277980Y-63692114D02*
X203277980Y-64358780D01*
X203277980Y-63787352D02*
X203230361Y-63739733D01*
X203135123Y-63692114D01*
X202992266Y-63692114D01*
X202897028Y-63739733D01*
X202849409Y-63834971D01*
X202849409Y-64358780D01*
X201849409Y-64358780D02*
X202420838Y-64358780D01*
X202135123Y-64358780D02*
X202135123Y-63358780D01*
X202230361Y-63501638D01*
X202325600Y-63596876D01*
X202420838Y-63644495D01*
%TO.C,RMIdiIn270*%
X209557523Y-60650380D02*
X209890857Y-60174190D01*
X210128952Y-60650380D02*
X210128952Y-59650380D01*
X209748000Y-59650380D01*
X209652761Y-59698000D01*
X209605142Y-59745619D01*
X209557523Y-59840857D01*
X209557523Y-59983714D01*
X209605142Y-60078952D01*
X209652761Y-60126571D01*
X209748000Y-60174190D01*
X210128952Y-60174190D01*
X209128952Y-60650380D02*
X209128952Y-59650380D01*
X208795619Y-60364666D01*
X208462285Y-59650380D01*
X208462285Y-60650380D01*
X207986095Y-60650380D02*
X207986095Y-59650380D01*
X207081333Y-60650380D02*
X207081333Y-59650380D01*
X207081333Y-60602761D02*
X207176571Y-60650380D01*
X207367047Y-60650380D01*
X207462285Y-60602761D01*
X207509904Y-60555142D01*
X207557523Y-60459904D01*
X207557523Y-60174190D01*
X207509904Y-60078952D01*
X207462285Y-60031333D01*
X207367047Y-59983714D01*
X207176571Y-59983714D01*
X207081333Y-60031333D01*
X206605142Y-60650380D02*
X206605142Y-59983714D01*
X206605142Y-59650380D02*
X206652761Y-59698000D01*
X206605142Y-59745619D01*
X206557523Y-59698000D01*
X206605142Y-59650380D01*
X206605142Y-59745619D01*
X206128952Y-60650380D02*
X206128952Y-59650380D01*
X205652761Y-59983714D02*
X205652761Y-60650380D01*
X205652761Y-60078952D02*
X205605142Y-60031333D01*
X205509904Y-59983714D01*
X205367047Y-59983714D01*
X205271809Y-60031333D01*
X205224190Y-60126571D01*
X205224190Y-60650380D01*
X204795619Y-59745619D02*
X204748000Y-59698000D01*
X204652761Y-59650380D01*
X204414666Y-59650380D01*
X204319428Y-59698000D01*
X204271809Y-59745619D01*
X204224190Y-59840857D01*
X204224190Y-59936095D01*
X204271809Y-60078952D01*
X204843238Y-60650380D01*
X204224190Y-60650380D01*
X203890857Y-59650380D02*
X203224190Y-59650380D01*
X203652761Y-60650380D01*
X202652761Y-59650380D02*
X202557523Y-59650380D01*
X202462285Y-59698000D01*
X202414666Y-59745619D01*
X202367047Y-59840857D01*
X202319428Y-60031333D01*
X202319428Y-60269428D01*
X202367047Y-60459904D01*
X202414666Y-60555142D01*
X202462285Y-60602761D01*
X202557523Y-60650380D01*
X202652761Y-60650380D01*
X202748000Y-60602761D01*
X202795619Y-60555142D01*
X202843238Y-60459904D01*
X202890857Y-60269428D01*
X202890857Y-60031333D01*
X202843238Y-59840857D01*
X202795619Y-59745619D01*
X202748000Y-59698000D01*
X202652761Y-59650380D01*
%TO.C,RMidiOut3*%
X251543771Y-64257180D02*
X251877104Y-63780990D01*
X252115200Y-64257180D02*
X252115200Y-63257180D01*
X251734247Y-63257180D01*
X251639009Y-63304800D01*
X251591390Y-63352419D01*
X251543771Y-63447657D01*
X251543771Y-63590514D01*
X251591390Y-63685752D01*
X251639009Y-63733371D01*
X251734247Y-63780990D01*
X252115200Y-63780990D01*
X251115200Y-64257180D02*
X251115200Y-63257180D01*
X250781866Y-63971466D01*
X250448533Y-63257180D01*
X250448533Y-64257180D01*
X249972342Y-64257180D02*
X249972342Y-63590514D01*
X249972342Y-63257180D02*
X250019961Y-63304800D01*
X249972342Y-63352419D01*
X249924723Y-63304800D01*
X249972342Y-63257180D01*
X249972342Y-63352419D01*
X249067580Y-64257180D02*
X249067580Y-63257180D01*
X249067580Y-64209561D02*
X249162819Y-64257180D01*
X249353295Y-64257180D01*
X249448533Y-64209561D01*
X249496152Y-64161942D01*
X249543771Y-64066704D01*
X249543771Y-63780990D01*
X249496152Y-63685752D01*
X249448533Y-63638133D01*
X249353295Y-63590514D01*
X249162819Y-63590514D01*
X249067580Y-63638133D01*
X248591390Y-64257180D02*
X248591390Y-63590514D01*
X248591390Y-63257180D02*
X248639009Y-63304800D01*
X248591390Y-63352419D01*
X248543771Y-63304800D01*
X248591390Y-63257180D01*
X248591390Y-63352419D01*
X247924723Y-63257180D02*
X247734247Y-63257180D01*
X247639009Y-63304800D01*
X247543771Y-63400038D01*
X247496152Y-63590514D01*
X247496152Y-63923847D01*
X247543771Y-64114323D01*
X247639009Y-64209561D01*
X247734247Y-64257180D01*
X247924723Y-64257180D01*
X248019961Y-64209561D01*
X248115200Y-64114323D01*
X248162819Y-63923847D01*
X248162819Y-63590514D01*
X248115200Y-63400038D01*
X248019961Y-63304800D01*
X247924723Y-63257180D01*
X246639009Y-63590514D02*
X246639009Y-64257180D01*
X247067580Y-63590514D02*
X247067580Y-64114323D01*
X247019961Y-64209561D01*
X246924723Y-64257180D01*
X246781866Y-64257180D01*
X246686628Y-64209561D01*
X246639009Y-64161942D01*
X246305676Y-63590514D02*
X245924723Y-63590514D01*
X246162819Y-63257180D02*
X246162819Y-64114323D01*
X246115200Y-64209561D01*
X246019961Y-64257180D01*
X245924723Y-64257180D01*
X245686628Y-63257180D02*
X245067580Y-63257180D01*
X245400914Y-63638133D01*
X245258057Y-63638133D01*
X245162819Y-63685752D01*
X245115200Y-63733371D01*
X245067580Y-63828609D01*
X245067580Y-64066704D01*
X245115200Y-64161942D01*
X245162819Y-64209561D01*
X245258057Y-64257180D01*
X245543771Y-64257180D01*
X245639009Y-64209561D01*
X245686628Y-64161942D01*
%TO.C,RMidiOut4*%
X251848571Y-61056780D02*
X252181904Y-60580590D01*
X252420000Y-61056780D02*
X252420000Y-60056780D01*
X252039047Y-60056780D01*
X251943809Y-60104400D01*
X251896190Y-60152019D01*
X251848571Y-60247257D01*
X251848571Y-60390114D01*
X251896190Y-60485352D01*
X251943809Y-60532971D01*
X252039047Y-60580590D01*
X252420000Y-60580590D01*
X251420000Y-61056780D02*
X251420000Y-60056780D01*
X251086666Y-60771066D01*
X250753333Y-60056780D01*
X250753333Y-61056780D01*
X250277142Y-61056780D02*
X250277142Y-60390114D01*
X250277142Y-60056780D02*
X250324761Y-60104400D01*
X250277142Y-60152019D01*
X250229523Y-60104400D01*
X250277142Y-60056780D01*
X250277142Y-60152019D01*
X249372380Y-61056780D02*
X249372380Y-60056780D01*
X249372380Y-61009161D02*
X249467619Y-61056780D01*
X249658095Y-61056780D01*
X249753333Y-61009161D01*
X249800952Y-60961542D01*
X249848571Y-60866304D01*
X249848571Y-60580590D01*
X249800952Y-60485352D01*
X249753333Y-60437733D01*
X249658095Y-60390114D01*
X249467619Y-60390114D01*
X249372380Y-60437733D01*
X248896190Y-61056780D02*
X248896190Y-60390114D01*
X248896190Y-60056780D02*
X248943809Y-60104400D01*
X248896190Y-60152019D01*
X248848571Y-60104400D01*
X248896190Y-60056780D01*
X248896190Y-60152019D01*
X248229523Y-60056780D02*
X248039047Y-60056780D01*
X247943809Y-60104400D01*
X247848571Y-60199638D01*
X247800952Y-60390114D01*
X247800952Y-60723447D01*
X247848571Y-60913923D01*
X247943809Y-61009161D01*
X248039047Y-61056780D01*
X248229523Y-61056780D01*
X248324761Y-61009161D01*
X248420000Y-60913923D01*
X248467619Y-60723447D01*
X248467619Y-60390114D01*
X248420000Y-60199638D01*
X248324761Y-60104400D01*
X248229523Y-60056780D01*
X246943809Y-60390114D02*
X246943809Y-61056780D01*
X247372380Y-60390114D02*
X247372380Y-60913923D01*
X247324761Y-61009161D01*
X247229523Y-61056780D01*
X247086666Y-61056780D01*
X246991428Y-61009161D01*
X246943809Y-60961542D01*
X246610476Y-60390114D02*
X246229523Y-60390114D01*
X246467619Y-60056780D02*
X246467619Y-60913923D01*
X246420000Y-61009161D01*
X246324761Y-61056780D01*
X246229523Y-61056780D01*
X245467619Y-60390114D02*
X245467619Y-61056780D01*
X245705714Y-60009161D02*
X245943809Y-60723447D01*
X245324761Y-60723447D01*
%TO.C,ROled1*%
X175823333Y-80276780D02*
X176156666Y-79800590D01*
X176394761Y-80276780D02*
X176394761Y-79276780D01*
X176013809Y-79276780D01*
X175918571Y-79324400D01*
X175870952Y-79372019D01*
X175823333Y-79467257D01*
X175823333Y-79610114D01*
X175870952Y-79705352D01*
X175918571Y-79752971D01*
X176013809Y-79800590D01*
X176394761Y-79800590D01*
X175204285Y-79276780D02*
X175013809Y-79276780D01*
X174918571Y-79324400D01*
X174823333Y-79419638D01*
X174775714Y-79610114D01*
X174775714Y-79943447D01*
X174823333Y-80133923D01*
X174918571Y-80229161D01*
X175013809Y-80276780D01*
X175204285Y-80276780D01*
X175299523Y-80229161D01*
X175394761Y-80133923D01*
X175442380Y-79943447D01*
X175442380Y-79610114D01*
X175394761Y-79419638D01*
X175299523Y-79324400D01*
X175204285Y-79276780D01*
X174204285Y-80276780D02*
X174299523Y-80229161D01*
X174347142Y-80133923D01*
X174347142Y-79276780D01*
X173442380Y-80229161D02*
X173537619Y-80276780D01*
X173728095Y-80276780D01*
X173823333Y-80229161D01*
X173870952Y-80133923D01*
X173870952Y-79752971D01*
X173823333Y-79657733D01*
X173728095Y-79610114D01*
X173537619Y-79610114D01*
X173442380Y-79657733D01*
X173394761Y-79752971D01*
X173394761Y-79848209D01*
X173870952Y-79943447D01*
X172537619Y-80276780D02*
X172537619Y-79276780D01*
X172537619Y-80229161D02*
X172632857Y-80276780D01*
X172823333Y-80276780D01*
X172918571Y-80229161D01*
X172966190Y-80181542D01*
X173013809Y-80086304D01*
X173013809Y-79800590D01*
X172966190Y-79705352D01*
X172918571Y-79657733D01*
X172823333Y-79610114D01*
X172632857Y-79610114D01*
X172537619Y-79657733D01*
X171537619Y-80276780D02*
X172109047Y-80276780D01*
X171823333Y-80276780D02*
X171823333Y-79276780D01*
X171918571Y-79419638D01*
X172013809Y-79514876D01*
X172109047Y-79562495D01*
%TO.C,ROled2*%
X175823333Y-88217180D02*
X176156666Y-87740990D01*
X176394761Y-88217180D02*
X176394761Y-87217180D01*
X176013809Y-87217180D01*
X175918571Y-87264800D01*
X175870952Y-87312419D01*
X175823333Y-87407657D01*
X175823333Y-87550514D01*
X175870952Y-87645752D01*
X175918571Y-87693371D01*
X176013809Y-87740990D01*
X176394761Y-87740990D01*
X175204285Y-87217180D02*
X175013809Y-87217180D01*
X174918571Y-87264800D01*
X174823333Y-87360038D01*
X174775714Y-87550514D01*
X174775714Y-87883847D01*
X174823333Y-88074323D01*
X174918571Y-88169561D01*
X175013809Y-88217180D01*
X175204285Y-88217180D01*
X175299523Y-88169561D01*
X175394761Y-88074323D01*
X175442380Y-87883847D01*
X175442380Y-87550514D01*
X175394761Y-87360038D01*
X175299523Y-87264800D01*
X175204285Y-87217180D01*
X174204285Y-88217180D02*
X174299523Y-88169561D01*
X174347142Y-88074323D01*
X174347142Y-87217180D01*
X173442380Y-88169561D02*
X173537619Y-88217180D01*
X173728095Y-88217180D01*
X173823333Y-88169561D01*
X173870952Y-88074323D01*
X173870952Y-87693371D01*
X173823333Y-87598133D01*
X173728095Y-87550514D01*
X173537619Y-87550514D01*
X173442380Y-87598133D01*
X173394761Y-87693371D01*
X173394761Y-87788609D01*
X173870952Y-87883847D01*
X172537619Y-88217180D02*
X172537619Y-87217180D01*
X172537619Y-88169561D02*
X172632857Y-88217180D01*
X172823333Y-88217180D01*
X172918571Y-88169561D01*
X172966190Y-88121942D01*
X173013809Y-88026704D01*
X173013809Y-87740990D01*
X172966190Y-87645752D01*
X172918571Y-87598133D01*
X172823333Y-87550514D01*
X172632857Y-87550514D01*
X172537619Y-87598133D01*
X172109047Y-87312419D02*
X172061428Y-87264800D01*
X171966190Y-87217180D01*
X171728095Y-87217180D01*
X171632857Y-87264800D01*
X171585238Y-87312419D01*
X171537619Y-87407657D01*
X171537619Y-87502895D01*
X171585238Y-87645752D01*
X172156666Y-88217180D01*
X171537619Y-88217180D01*
%TO.C,RRotRight1*%
X216642533Y-134107180D02*
X216975866Y-133630990D01*
X217213961Y-134107180D02*
X217213961Y-133107180D01*
X216833009Y-133107180D01*
X216737771Y-133154800D01*
X216690152Y-133202419D01*
X216642533Y-133297657D01*
X216642533Y-133440514D01*
X216690152Y-133535752D01*
X216737771Y-133583371D01*
X216833009Y-133630990D01*
X217213961Y-133630990D01*
X215642533Y-134107180D02*
X215975866Y-133630990D01*
X216213961Y-134107180D02*
X216213961Y-133107180D01*
X215833009Y-133107180D01*
X215737771Y-133154800D01*
X215690152Y-133202419D01*
X215642533Y-133297657D01*
X215642533Y-133440514D01*
X215690152Y-133535752D01*
X215737771Y-133583371D01*
X215833009Y-133630990D01*
X216213961Y-133630990D01*
X215071104Y-134107180D02*
X215166342Y-134059561D01*
X215213961Y-134011942D01*
X215261580Y-133916704D01*
X215261580Y-133630990D01*
X215213961Y-133535752D01*
X215166342Y-133488133D01*
X215071104Y-133440514D01*
X214928247Y-133440514D01*
X214833009Y-133488133D01*
X214785390Y-133535752D01*
X214737771Y-133630990D01*
X214737771Y-133916704D01*
X214785390Y-134011942D01*
X214833009Y-134059561D01*
X214928247Y-134107180D01*
X215071104Y-134107180D01*
X214452057Y-133440514D02*
X214071104Y-133440514D01*
X214309200Y-133107180D02*
X214309200Y-133964323D01*
X214261580Y-134059561D01*
X214166342Y-134107180D01*
X214071104Y-134107180D01*
X213166342Y-134107180D02*
X213499676Y-133630990D01*
X213737771Y-134107180D02*
X213737771Y-133107180D01*
X213356819Y-133107180D01*
X213261580Y-133154800D01*
X213213961Y-133202419D01*
X213166342Y-133297657D01*
X213166342Y-133440514D01*
X213213961Y-133535752D01*
X213261580Y-133583371D01*
X213356819Y-133630990D01*
X213737771Y-133630990D01*
X212737771Y-134107180D02*
X212737771Y-133440514D01*
X212737771Y-133107180D02*
X212785390Y-133154800D01*
X212737771Y-133202419D01*
X212690152Y-133154800D01*
X212737771Y-133107180D01*
X212737771Y-133202419D01*
X211833009Y-133440514D02*
X211833009Y-134250038D01*
X211880628Y-134345276D01*
X211928247Y-134392895D01*
X212023485Y-134440514D01*
X212166342Y-134440514D01*
X212261580Y-134392895D01*
X211833009Y-134059561D02*
X211928247Y-134107180D01*
X212118723Y-134107180D01*
X212213961Y-134059561D01*
X212261580Y-134011942D01*
X212309200Y-133916704D01*
X212309200Y-133630990D01*
X212261580Y-133535752D01*
X212213961Y-133488133D01*
X212118723Y-133440514D01*
X211928247Y-133440514D01*
X211833009Y-133488133D01*
X211356819Y-134107180D02*
X211356819Y-133107180D01*
X210928247Y-134107180D02*
X210928247Y-133583371D01*
X210975866Y-133488133D01*
X211071104Y-133440514D01*
X211213961Y-133440514D01*
X211309200Y-133488133D01*
X211356819Y-133535752D01*
X210594914Y-133440514D02*
X210213961Y-133440514D01*
X210452057Y-133107180D02*
X210452057Y-133964323D01*
X210404438Y-134059561D01*
X210309200Y-134107180D01*
X210213961Y-134107180D01*
X209356819Y-134107180D02*
X209928247Y-134107180D01*
X209642533Y-134107180D02*
X209642533Y-133107180D01*
X209737771Y-133250038D01*
X209833009Y-133345276D01*
X209928247Y-133392895D01*
%TO.C,RRotRight2*%
X215880533Y-153207980D02*
X216213866Y-152731790D01*
X216451961Y-153207980D02*
X216451961Y-152207980D01*
X216071009Y-152207980D01*
X215975771Y-152255600D01*
X215928152Y-152303219D01*
X215880533Y-152398457D01*
X215880533Y-152541314D01*
X215928152Y-152636552D01*
X215975771Y-152684171D01*
X216071009Y-152731790D01*
X216451961Y-152731790D01*
X214880533Y-153207980D02*
X215213866Y-152731790D01*
X215451961Y-153207980D02*
X215451961Y-152207980D01*
X215071009Y-152207980D01*
X214975771Y-152255600D01*
X214928152Y-152303219D01*
X214880533Y-152398457D01*
X214880533Y-152541314D01*
X214928152Y-152636552D01*
X214975771Y-152684171D01*
X215071009Y-152731790D01*
X215451961Y-152731790D01*
X214309104Y-153207980D02*
X214404342Y-153160361D01*
X214451961Y-153112742D01*
X214499580Y-153017504D01*
X214499580Y-152731790D01*
X214451961Y-152636552D01*
X214404342Y-152588933D01*
X214309104Y-152541314D01*
X214166247Y-152541314D01*
X214071009Y-152588933D01*
X214023390Y-152636552D01*
X213975771Y-152731790D01*
X213975771Y-153017504D01*
X214023390Y-153112742D01*
X214071009Y-153160361D01*
X214166247Y-153207980D01*
X214309104Y-153207980D01*
X213690057Y-152541314D02*
X213309104Y-152541314D01*
X213547200Y-152207980D02*
X213547200Y-153065123D01*
X213499580Y-153160361D01*
X213404342Y-153207980D01*
X213309104Y-153207980D01*
X212404342Y-153207980D02*
X212737676Y-152731790D01*
X212975771Y-153207980D02*
X212975771Y-152207980D01*
X212594819Y-152207980D01*
X212499580Y-152255600D01*
X212451961Y-152303219D01*
X212404342Y-152398457D01*
X212404342Y-152541314D01*
X212451961Y-152636552D01*
X212499580Y-152684171D01*
X212594819Y-152731790D01*
X212975771Y-152731790D01*
X211975771Y-153207980D02*
X211975771Y-152541314D01*
X211975771Y-152207980D02*
X212023390Y-152255600D01*
X211975771Y-152303219D01*
X211928152Y-152255600D01*
X211975771Y-152207980D01*
X211975771Y-152303219D01*
X211071009Y-152541314D02*
X211071009Y-153350838D01*
X211118628Y-153446076D01*
X211166247Y-153493695D01*
X211261485Y-153541314D01*
X211404342Y-153541314D01*
X211499580Y-153493695D01*
X211071009Y-153160361D02*
X211166247Y-153207980D01*
X211356723Y-153207980D01*
X211451961Y-153160361D01*
X211499580Y-153112742D01*
X211547200Y-153017504D01*
X211547200Y-152731790D01*
X211499580Y-152636552D01*
X211451961Y-152588933D01*
X211356723Y-152541314D01*
X211166247Y-152541314D01*
X211071009Y-152588933D01*
X210594819Y-153207980D02*
X210594819Y-152207980D01*
X210166247Y-153207980D02*
X210166247Y-152684171D01*
X210213866Y-152588933D01*
X210309104Y-152541314D01*
X210451961Y-152541314D01*
X210547200Y-152588933D01*
X210594819Y-152636552D01*
X209832914Y-152541314D02*
X209451961Y-152541314D01*
X209690057Y-152207980D02*
X209690057Y-153065123D01*
X209642438Y-153160361D01*
X209547200Y-153207980D01*
X209451961Y-153207980D01*
X209166247Y-152303219D02*
X209118628Y-152255600D01*
X209023390Y-152207980D01*
X208785295Y-152207980D01*
X208690057Y-152255600D01*
X208642438Y-152303219D01*
X208594819Y-152398457D01*
X208594819Y-152493695D01*
X208642438Y-152636552D01*
X209213866Y-153207980D01*
X208594819Y-153207980D01*
%TO.C,RRotRight3*%
X215931333Y-131160780D02*
X216264666Y-130684590D01*
X216502761Y-131160780D02*
X216502761Y-130160780D01*
X216121809Y-130160780D01*
X216026571Y-130208400D01*
X215978952Y-130256019D01*
X215931333Y-130351257D01*
X215931333Y-130494114D01*
X215978952Y-130589352D01*
X216026571Y-130636971D01*
X216121809Y-130684590D01*
X216502761Y-130684590D01*
X214931333Y-131160780D02*
X215264666Y-130684590D01*
X215502761Y-131160780D02*
X215502761Y-130160780D01*
X215121809Y-130160780D01*
X215026571Y-130208400D01*
X214978952Y-130256019D01*
X214931333Y-130351257D01*
X214931333Y-130494114D01*
X214978952Y-130589352D01*
X215026571Y-130636971D01*
X215121809Y-130684590D01*
X215502761Y-130684590D01*
X214359904Y-131160780D02*
X214455142Y-131113161D01*
X214502761Y-131065542D01*
X214550380Y-130970304D01*
X214550380Y-130684590D01*
X214502761Y-130589352D01*
X214455142Y-130541733D01*
X214359904Y-130494114D01*
X214217047Y-130494114D01*
X214121809Y-130541733D01*
X214074190Y-130589352D01*
X214026571Y-130684590D01*
X214026571Y-130970304D01*
X214074190Y-131065542D01*
X214121809Y-131113161D01*
X214217047Y-131160780D01*
X214359904Y-131160780D01*
X213740857Y-130494114D02*
X213359904Y-130494114D01*
X213598000Y-130160780D02*
X213598000Y-131017923D01*
X213550380Y-131113161D01*
X213455142Y-131160780D01*
X213359904Y-131160780D01*
X212455142Y-131160780D02*
X212788476Y-130684590D01*
X213026571Y-131160780D02*
X213026571Y-130160780D01*
X212645619Y-130160780D01*
X212550380Y-130208400D01*
X212502761Y-130256019D01*
X212455142Y-130351257D01*
X212455142Y-130494114D01*
X212502761Y-130589352D01*
X212550380Y-130636971D01*
X212645619Y-130684590D01*
X213026571Y-130684590D01*
X212026571Y-131160780D02*
X212026571Y-130494114D01*
X212026571Y-130160780D02*
X212074190Y-130208400D01*
X212026571Y-130256019D01*
X211978952Y-130208400D01*
X212026571Y-130160780D01*
X212026571Y-130256019D01*
X211121809Y-130494114D02*
X211121809Y-131303638D01*
X211169428Y-131398876D01*
X211217047Y-131446495D01*
X211312285Y-131494114D01*
X211455142Y-131494114D01*
X211550380Y-131446495D01*
X211121809Y-131113161D02*
X211217047Y-131160780D01*
X211407523Y-131160780D01*
X211502761Y-131113161D01*
X211550380Y-131065542D01*
X211598000Y-130970304D01*
X211598000Y-130684590D01*
X211550380Y-130589352D01*
X211502761Y-130541733D01*
X211407523Y-130494114D01*
X211217047Y-130494114D01*
X211121809Y-130541733D01*
X210645619Y-131160780D02*
X210645619Y-130160780D01*
X210217047Y-131160780D02*
X210217047Y-130636971D01*
X210264666Y-130541733D01*
X210359904Y-130494114D01*
X210502761Y-130494114D01*
X210598000Y-130541733D01*
X210645619Y-130589352D01*
X209883714Y-130494114D02*
X209502761Y-130494114D01*
X209740857Y-130160780D02*
X209740857Y-131017923D01*
X209693238Y-131113161D01*
X209598000Y-131160780D01*
X209502761Y-131160780D01*
X209264666Y-130160780D02*
X208645619Y-130160780D01*
X208978952Y-130541733D01*
X208836095Y-130541733D01*
X208740857Y-130589352D01*
X208693238Y-130636971D01*
X208645619Y-130732209D01*
X208645619Y-130970304D01*
X208693238Y-131065542D01*
X208740857Y-131113161D01*
X208836095Y-131160780D01*
X209121809Y-131160780D01*
X209217047Y-131113161D01*
X209264666Y-131065542D01*
%TO.C,RRotRight4*%
X215778933Y-156713180D02*
X216112266Y-156236990D01*
X216350361Y-156713180D02*
X216350361Y-155713180D01*
X215969409Y-155713180D01*
X215874171Y-155760800D01*
X215826552Y-155808419D01*
X215778933Y-155903657D01*
X215778933Y-156046514D01*
X215826552Y-156141752D01*
X215874171Y-156189371D01*
X215969409Y-156236990D01*
X216350361Y-156236990D01*
X214778933Y-156713180D02*
X215112266Y-156236990D01*
X215350361Y-156713180D02*
X215350361Y-155713180D01*
X214969409Y-155713180D01*
X214874171Y-155760800D01*
X214826552Y-155808419D01*
X214778933Y-155903657D01*
X214778933Y-156046514D01*
X214826552Y-156141752D01*
X214874171Y-156189371D01*
X214969409Y-156236990D01*
X215350361Y-156236990D01*
X214207504Y-156713180D02*
X214302742Y-156665561D01*
X214350361Y-156617942D01*
X214397980Y-156522704D01*
X214397980Y-156236990D01*
X214350361Y-156141752D01*
X214302742Y-156094133D01*
X214207504Y-156046514D01*
X214064647Y-156046514D01*
X213969409Y-156094133D01*
X213921790Y-156141752D01*
X213874171Y-156236990D01*
X213874171Y-156522704D01*
X213921790Y-156617942D01*
X213969409Y-156665561D01*
X214064647Y-156713180D01*
X214207504Y-156713180D01*
X213588457Y-156046514D02*
X213207504Y-156046514D01*
X213445600Y-155713180D02*
X213445600Y-156570323D01*
X213397980Y-156665561D01*
X213302742Y-156713180D01*
X213207504Y-156713180D01*
X212302742Y-156713180D02*
X212636076Y-156236990D01*
X212874171Y-156713180D02*
X212874171Y-155713180D01*
X212493219Y-155713180D01*
X212397980Y-155760800D01*
X212350361Y-155808419D01*
X212302742Y-155903657D01*
X212302742Y-156046514D01*
X212350361Y-156141752D01*
X212397980Y-156189371D01*
X212493219Y-156236990D01*
X212874171Y-156236990D01*
X211874171Y-156713180D02*
X211874171Y-156046514D01*
X211874171Y-155713180D02*
X211921790Y-155760800D01*
X211874171Y-155808419D01*
X211826552Y-155760800D01*
X211874171Y-155713180D01*
X211874171Y-155808419D01*
X210969409Y-156046514D02*
X210969409Y-156856038D01*
X211017028Y-156951276D01*
X211064647Y-156998895D01*
X211159885Y-157046514D01*
X211302742Y-157046514D01*
X211397980Y-156998895D01*
X210969409Y-156665561D02*
X211064647Y-156713180D01*
X211255123Y-156713180D01*
X211350361Y-156665561D01*
X211397980Y-156617942D01*
X211445600Y-156522704D01*
X211445600Y-156236990D01*
X211397980Y-156141752D01*
X211350361Y-156094133D01*
X211255123Y-156046514D01*
X211064647Y-156046514D01*
X210969409Y-156094133D01*
X210493219Y-156713180D02*
X210493219Y-155713180D01*
X210064647Y-156713180D02*
X210064647Y-156189371D01*
X210112266Y-156094133D01*
X210207504Y-156046514D01*
X210350361Y-156046514D01*
X210445600Y-156094133D01*
X210493219Y-156141752D01*
X209731314Y-156046514D02*
X209350361Y-156046514D01*
X209588457Y-155713180D02*
X209588457Y-156570323D01*
X209540838Y-156665561D01*
X209445600Y-156713180D01*
X209350361Y-156713180D01*
X208588457Y-156046514D02*
X208588457Y-156713180D01*
X208826552Y-155665561D02*
X209064647Y-156379847D01*
X208445600Y-156379847D01*
%TO.C,RSlide1*%
X267555409Y-174340780D02*
X267888742Y-173864590D01*
X268126838Y-174340780D02*
X268126838Y-173340780D01*
X267745885Y-173340780D01*
X267650647Y-173388400D01*
X267603028Y-173436019D01*
X267555409Y-173531257D01*
X267555409Y-173674114D01*
X267603028Y-173769352D01*
X267650647Y-173816971D01*
X267745885Y-173864590D01*
X268126838Y-173864590D01*
X267174457Y-174293161D02*
X267031600Y-174340780D01*
X266793504Y-174340780D01*
X266698266Y-174293161D01*
X266650647Y-174245542D01*
X266603028Y-174150304D01*
X266603028Y-174055066D01*
X266650647Y-173959828D01*
X266698266Y-173912209D01*
X266793504Y-173864590D01*
X266983980Y-173816971D01*
X267079219Y-173769352D01*
X267126838Y-173721733D01*
X267174457Y-173626495D01*
X267174457Y-173531257D01*
X267126838Y-173436019D01*
X267079219Y-173388400D01*
X266983980Y-173340780D01*
X266745885Y-173340780D01*
X266603028Y-173388400D01*
X266031600Y-174340780D02*
X266126838Y-174293161D01*
X266174457Y-174197923D01*
X266174457Y-173340780D01*
X265650647Y-174340780D02*
X265650647Y-173674114D01*
X265650647Y-173340780D02*
X265698266Y-173388400D01*
X265650647Y-173436019D01*
X265603028Y-173388400D01*
X265650647Y-173340780D01*
X265650647Y-173436019D01*
X264745885Y-174340780D02*
X264745885Y-173340780D01*
X264745885Y-174293161D02*
X264841123Y-174340780D01*
X265031600Y-174340780D01*
X265126838Y-174293161D01*
X265174457Y-174245542D01*
X265222076Y-174150304D01*
X265222076Y-173864590D01*
X265174457Y-173769352D01*
X265126838Y-173721733D01*
X265031600Y-173674114D01*
X264841123Y-173674114D01*
X264745885Y-173721733D01*
X263888742Y-174293161D02*
X263983980Y-174340780D01*
X264174457Y-174340780D01*
X264269695Y-174293161D01*
X264317314Y-174197923D01*
X264317314Y-173816971D01*
X264269695Y-173721733D01*
X264174457Y-173674114D01*
X263983980Y-173674114D01*
X263888742Y-173721733D01*
X263841123Y-173816971D01*
X263841123Y-173912209D01*
X264317314Y-174007447D01*
X262888742Y-174340780D02*
X263460171Y-174340780D01*
X263174457Y-174340780D02*
X263174457Y-173340780D01*
X263269695Y-173483638D01*
X263364933Y-173578876D01*
X263460171Y-173626495D01*
%TO.C,RTop1*%
X67898780Y-53233580D02*
X68232114Y-52757390D01*
X68470209Y-53233580D02*
X68470209Y-52233580D01*
X68089257Y-52233580D01*
X67994019Y-52281200D01*
X67946400Y-52328819D01*
X67898780Y-52424057D01*
X67898780Y-52566914D01*
X67946400Y-52662152D01*
X67994019Y-52709771D01*
X68089257Y-52757390D01*
X68470209Y-52757390D01*
X67613066Y-52233580D02*
X67041638Y-52233580D01*
X67327352Y-53233580D02*
X67327352Y-52233580D01*
X66565447Y-53233580D02*
X66660685Y-53185961D01*
X66708304Y-53138342D01*
X66755923Y-53043104D01*
X66755923Y-52757390D01*
X66708304Y-52662152D01*
X66660685Y-52614533D01*
X66565447Y-52566914D01*
X66422590Y-52566914D01*
X66327352Y-52614533D01*
X66279733Y-52662152D01*
X66232114Y-52757390D01*
X66232114Y-53043104D01*
X66279733Y-53138342D01*
X66327352Y-53185961D01*
X66422590Y-53233580D01*
X66565447Y-53233580D01*
X65803542Y-52566914D02*
X65803542Y-53566914D01*
X65803542Y-52614533D02*
X65708304Y-52566914D01*
X65517828Y-52566914D01*
X65422590Y-52614533D01*
X65374971Y-52662152D01*
X65327352Y-52757390D01*
X65327352Y-53043104D01*
X65374971Y-53138342D01*
X65422590Y-53185961D01*
X65517828Y-53233580D01*
X65708304Y-53233580D01*
X65803542Y-53185961D01*
X64374971Y-53233580D02*
X64946400Y-53233580D01*
X64660685Y-53233580D02*
X64660685Y-52233580D01*
X64755923Y-52376438D01*
X64851161Y-52471676D01*
X64946400Y-52519295D01*
%TO.C,RTop2*%
X68254380Y-72486780D02*
X68587714Y-72010590D01*
X68825809Y-72486780D02*
X68825809Y-71486780D01*
X68444857Y-71486780D01*
X68349619Y-71534400D01*
X68302000Y-71582019D01*
X68254380Y-71677257D01*
X68254380Y-71820114D01*
X68302000Y-71915352D01*
X68349619Y-71962971D01*
X68444857Y-72010590D01*
X68825809Y-72010590D01*
X67968666Y-71486780D02*
X67397238Y-71486780D01*
X67682952Y-72486780D02*
X67682952Y-71486780D01*
X66921047Y-72486780D02*
X67016285Y-72439161D01*
X67063904Y-72391542D01*
X67111523Y-72296304D01*
X67111523Y-72010590D01*
X67063904Y-71915352D01*
X67016285Y-71867733D01*
X66921047Y-71820114D01*
X66778190Y-71820114D01*
X66682952Y-71867733D01*
X66635333Y-71915352D01*
X66587714Y-72010590D01*
X66587714Y-72296304D01*
X66635333Y-72391542D01*
X66682952Y-72439161D01*
X66778190Y-72486780D01*
X66921047Y-72486780D01*
X66159142Y-71820114D02*
X66159142Y-72820114D01*
X66159142Y-71867733D02*
X66063904Y-71820114D01*
X65873428Y-71820114D01*
X65778190Y-71867733D01*
X65730571Y-71915352D01*
X65682952Y-72010590D01*
X65682952Y-72296304D01*
X65730571Y-72391542D01*
X65778190Y-72439161D01*
X65873428Y-72486780D01*
X66063904Y-72486780D01*
X66159142Y-72439161D01*
X65302000Y-71582019D02*
X65254380Y-71534400D01*
X65159142Y-71486780D01*
X64921047Y-71486780D01*
X64825809Y-71534400D01*
X64778190Y-71582019D01*
X64730571Y-71677257D01*
X64730571Y-71772495D01*
X64778190Y-71915352D01*
X65349619Y-72486780D01*
X64730571Y-72486780D01*
%TO.C,RTop3*%
X68101980Y-49626780D02*
X68435314Y-49150590D01*
X68673409Y-49626780D02*
X68673409Y-48626780D01*
X68292457Y-48626780D01*
X68197219Y-48674400D01*
X68149600Y-48722019D01*
X68101980Y-48817257D01*
X68101980Y-48960114D01*
X68149600Y-49055352D01*
X68197219Y-49102971D01*
X68292457Y-49150590D01*
X68673409Y-49150590D01*
X67816266Y-48626780D02*
X67244838Y-48626780D01*
X67530552Y-49626780D02*
X67530552Y-48626780D01*
X66768647Y-49626780D02*
X66863885Y-49579161D01*
X66911504Y-49531542D01*
X66959123Y-49436304D01*
X66959123Y-49150590D01*
X66911504Y-49055352D01*
X66863885Y-49007733D01*
X66768647Y-48960114D01*
X66625790Y-48960114D01*
X66530552Y-49007733D01*
X66482933Y-49055352D01*
X66435314Y-49150590D01*
X66435314Y-49436304D01*
X66482933Y-49531542D01*
X66530552Y-49579161D01*
X66625790Y-49626780D01*
X66768647Y-49626780D01*
X66006742Y-48960114D02*
X66006742Y-49960114D01*
X66006742Y-49007733D02*
X65911504Y-48960114D01*
X65721028Y-48960114D01*
X65625790Y-49007733D01*
X65578171Y-49055352D01*
X65530552Y-49150590D01*
X65530552Y-49436304D01*
X65578171Y-49531542D01*
X65625790Y-49579161D01*
X65721028Y-49626780D01*
X65911504Y-49626780D01*
X66006742Y-49579161D01*
X65197219Y-48626780D02*
X64578171Y-48626780D01*
X64911504Y-49007733D01*
X64768647Y-49007733D01*
X64673409Y-49055352D01*
X64625790Y-49102971D01*
X64578171Y-49198209D01*
X64578171Y-49436304D01*
X64625790Y-49531542D01*
X64673409Y-49579161D01*
X64768647Y-49626780D01*
X65054361Y-49626780D01*
X65149600Y-49579161D01*
X65197219Y-49531542D01*
%TO.C,RTop4*%
X67898780Y-76804780D02*
X68232114Y-76328590D01*
X68470209Y-76804780D02*
X68470209Y-75804780D01*
X68089257Y-75804780D01*
X67994019Y-75852400D01*
X67946400Y-75900019D01*
X67898780Y-75995257D01*
X67898780Y-76138114D01*
X67946400Y-76233352D01*
X67994019Y-76280971D01*
X68089257Y-76328590D01*
X68470209Y-76328590D01*
X67613066Y-75804780D02*
X67041638Y-75804780D01*
X67327352Y-76804780D02*
X67327352Y-75804780D01*
X66565447Y-76804780D02*
X66660685Y-76757161D01*
X66708304Y-76709542D01*
X66755923Y-76614304D01*
X66755923Y-76328590D01*
X66708304Y-76233352D01*
X66660685Y-76185733D01*
X66565447Y-76138114D01*
X66422590Y-76138114D01*
X66327352Y-76185733D01*
X66279733Y-76233352D01*
X66232114Y-76328590D01*
X66232114Y-76614304D01*
X66279733Y-76709542D01*
X66327352Y-76757161D01*
X66422590Y-76804780D01*
X66565447Y-76804780D01*
X65803542Y-76138114D02*
X65803542Y-77138114D01*
X65803542Y-76185733D02*
X65708304Y-76138114D01*
X65517828Y-76138114D01*
X65422590Y-76185733D01*
X65374971Y-76233352D01*
X65327352Y-76328590D01*
X65327352Y-76614304D01*
X65374971Y-76709542D01*
X65422590Y-76757161D01*
X65517828Y-76804780D01*
X65708304Y-76804780D01*
X65803542Y-76757161D01*
X64470209Y-76138114D02*
X64470209Y-76804780D01*
X64708304Y-75757161D02*
X64946400Y-76471447D01*
X64327352Y-76471447D01*
%TO.C,TEENSY1*%
D15*
X106746523Y-69221047D02*
X106746523Y-69946761D01*
X108016523Y-69583904D02*
X106746523Y-69583904D01*
X107351285Y-70370095D02*
X107351285Y-70793428D01*
X108016523Y-70974857D02*
X108016523Y-70370095D01*
X106746523Y-70370095D01*
X106746523Y-70974857D01*
X107351285Y-71519142D02*
X107351285Y-71942476D01*
X108016523Y-72123904D02*
X108016523Y-71519142D01*
X106746523Y-71519142D01*
X106746523Y-72123904D01*
X108016523Y-72668190D02*
X106746523Y-72668190D01*
X108016523Y-73393904D01*
X106746523Y-73393904D01*
X107956047Y-73938190D02*
X108016523Y-74119619D01*
X108016523Y-74422000D01*
X107956047Y-74542952D01*
X107895571Y-74603428D01*
X107774619Y-74663904D01*
X107653666Y-74663904D01*
X107532714Y-74603428D01*
X107472238Y-74542952D01*
X107411761Y-74422000D01*
X107351285Y-74180095D01*
X107290809Y-74059142D01*
X107230333Y-73998666D01*
X107109380Y-73938190D01*
X106988428Y-73938190D01*
X106867476Y-73998666D01*
X106807000Y-74059142D01*
X106746523Y-74180095D01*
X106746523Y-74482476D01*
X106807000Y-74663904D01*
X107411761Y-75450095D02*
X108016523Y-75450095D01*
X106746523Y-75026761D02*
X107411761Y-75450095D01*
X106746523Y-75873428D01*
X108016523Y-76962000D02*
X108016523Y-76236285D01*
X108016523Y-76599142D02*
X106746523Y-76599142D01*
X106927952Y-76478190D01*
X107048904Y-76357238D01*
X107109380Y-76236285D01*
%TO.C,CLeft1*%
D14*
X194565542Y-130559371D02*
X194613161Y-130511752D01*
X194660780Y-130368895D01*
X194660780Y-130273657D01*
X194613161Y-130130800D01*
X194517923Y-130035561D01*
X194422685Y-129987942D01*
X194232209Y-129940323D01*
X194089352Y-129940323D01*
X193898876Y-129987942D01*
X193803638Y-130035561D01*
X193708400Y-130130800D01*
X193660780Y-130273657D01*
X193660780Y-130368895D01*
X193708400Y-130511752D01*
X193756019Y-130559371D01*
X194660780Y-131464133D02*
X194660780Y-130987942D01*
X193660780Y-130987942D01*
X194613161Y-132178419D02*
X194660780Y-132083180D01*
X194660780Y-131892704D01*
X194613161Y-131797466D01*
X194517923Y-131749847D01*
X194136971Y-131749847D01*
X194041733Y-131797466D01*
X193994114Y-131892704D01*
X193994114Y-132083180D01*
X194041733Y-132178419D01*
X194136971Y-132226038D01*
X194232209Y-132226038D01*
X194327447Y-131749847D01*
X193994114Y-132511752D02*
X193994114Y-132892704D01*
X194660780Y-132654609D02*
X193803638Y-132654609D01*
X193708400Y-132702228D01*
X193660780Y-132797466D01*
X193660780Y-132892704D01*
X193994114Y-133083180D02*
X193994114Y-133464133D01*
X193660780Y-133226038D02*
X194517923Y-133226038D01*
X194613161Y-133273657D01*
X194660780Y-133368895D01*
X194660780Y-133464133D01*
X194660780Y-134321276D02*
X194660780Y-133749847D01*
X194660780Y-134035561D02*
X193660780Y-134035561D01*
X193803638Y-133940323D01*
X193898876Y-133845085D01*
X193946495Y-133749847D01*
%TO.C,CLeft2*%
X192533542Y-153571771D02*
X192581161Y-153524152D01*
X192628780Y-153381295D01*
X192628780Y-153286057D01*
X192581161Y-153143200D01*
X192485923Y-153047961D01*
X192390685Y-153000342D01*
X192200209Y-152952723D01*
X192057352Y-152952723D01*
X191866876Y-153000342D01*
X191771638Y-153047961D01*
X191676400Y-153143200D01*
X191628780Y-153286057D01*
X191628780Y-153381295D01*
X191676400Y-153524152D01*
X191724019Y-153571771D01*
X192628780Y-154476533D02*
X192628780Y-154000342D01*
X191628780Y-154000342D01*
X192581161Y-155190819D02*
X192628780Y-155095580D01*
X192628780Y-154905104D01*
X192581161Y-154809866D01*
X192485923Y-154762247D01*
X192104971Y-154762247D01*
X192009733Y-154809866D01*
X191962114Y-154905104D01*
X191962114Y-155095580D01*
X192009733Y-155190819D01*
X192104971Y-155238438D01*
X192200209Y-155238438D01*
X192295447Y-154762247D01*
X191962114Y-155524152D02*
X191962114Y-155905104D01*
X192628780Y-155667009D02*
X191771638Y-155667009D01*
X191676400Y-155714628D01*
X191628780Y-155809866D01*
X191628780Y-155905104D01*
X191962114Y-156095580D02*
X191962114Y-156476533D01*
X191628780Y-156238438D02*
X192485923Y-156238438D01*
X192581161Y-156286057D01*
X192628780Y-156381295D01*
X192628780Y-156476533D01*
X191724019Y-156762247D02*
X191676400Y-156809866D01*
X191628780Y-156905104D01*
X191628780Y-157143200D01*
X191676400Y-157238438D01*
X191724019Y-157286057D01*
X191819257Y-157333676D01*
X191914495Y-157333676D01*
X192057352Y-157286057D01*
X192628780Y-156714628D01*
X192628780Y-157333676D01*
%TO.C,CRight1*%
X218090342Y-130452761D02*
X218137961Y-130405142D01*
X218185580Y-130262285D01*
X218185580Y-130167047D01*
X218137961Y-130024190D01*
X218042723Y-129928952D01*
X217947485Y-129881333D01*
X217757009Y-129833714D01*
X217614152Y-129833714D01*
X217423676Y-129881333D01*
X217328438Y-129928952D01*
X217233200Y-130024190D01*
X217185580Y-130167047D01*
X217185580Y-130262285D01*
X217233200Y-130405142D01*
X217280819Y-130452761D01*
X218185580Y-131452761D02*
X217709390Y-131119428D01*
X218185580Y-130881333D02*
X217185580Y-130881333D01*
X217185580Y-131262285D01*
X217233200Y-131357523D01*
X217280819Y-131405142D01*
X217376057Y-131452761D01*
X217518914Y-131452761D01*
X217614152Y-131405142D01*
X217661771Y-131357523D01*
X217709390Y-131262285D01*
X217709390Y-130881333D01*
X218185580Y-131881333D02*
X217518914Y-131881333D01*
X217185580Y-131881333D02*
X217233200Y-131833714D01*
X217280819Y-131881333D01*
X217233200Y-131928952D01*
X217185580Y-131881333D01*
X217280819Y-131881333D01*
X217518914Y-132786095D02*
X218328438Y-132786095D01*
X218423676Y-132738476D01*
X218471295Y-132690857D01*
X218518914Y-132595619D01*
X218518914Y-132452761D01*
X218471295Y-132357523D01*
X218137961Y-132786095D02*
X218185580Y-132690857D01*
X218185580Y-132500380D01*
X218137961Y-132405142D01*
X218090342Y-132357523D01*
X217995104Y-132309904D01*
X217709390Y-132309904D01*
X217614152Y-132357523D01*
X217566533Y-132405142D01*
X217518914Y-132500380D01*
X217518914Y-132690857D01*
X217566533Y-132786095D01*
X218185580Y-133262285D02*
X217185580Y-133262285D01*
X218185580Y-133690857D02*
X217661771Y-133690857D01*
X217566533Y-133643238D01*
X217518914Y-133548000D01*
X217518914Y-133405142D01*
X217566533Y-133309904D01*
X217614152Y-133262285D01*
X217518914Y-134024190D02*
X217518914Y-134405142D01*
X217185580Y-134167047D02*
X218042723Y-134167047D01*
X218137961Y-134214666D01*
X218185580Y-134309904D01*
X218185580Y-134405142D01*
X218185580Y-135262285D02*
X218185580Y-134690857D01*
X218185580Y-134976571D02*
X217185580Y-134976571D01*
X217328438Y-134881333D01*
X217423676Y-134786095D01*
X217471295Y-134690857D01*
%TO.C,CRight2*%
X221946742Y-152743161D02*
X221994361Y-152695542D01*
X222041980Y-152552685D01*
X222041980Y-152457447D01*
X221994361Y-152314590D01*
X221899123Y-152219352D01*
X221803885Y-152171733D01*
X221613409Y-152124114D01*
X221470552Y-152124114D01*
X221280076Y-152171733D01*
X221184838Y-152219352D01*
X221089600Y-152314590D01*
X221041980Y-152457447D01*
X221041980Y-152552685D01*
X221089600Y-152695542D01*
X221137219Y-152743161D01*
X222041980Y-153743161D02*
X221565790Y-153409828D01*
X222041980Y-153171733D02*
X221041980Y-153171733D01*
X221041980Y-153552685D01*
X221089600Y-153647923D01*
X221137219Y-153695542D01*
X221232457Y-153743161D01*
X221375314Y-153743161D01*
X221470552Y-153695542D01*
X221518171Y-153647923D01*
X221565790Y-153552685D01*
X221565790Y-153171733D01*
X222041980Y-154171733D02*
X221375314Y-154171733D01*
X221041980Y-154171733D02*
X221089600Y-154124114D01*
X221137219Y-154171733D01*
X221089600Y-154219352D01*
X221041980Y-154171733D01*
X221137219Y-154171733D01*
X221375314Y-155076495D02*
X222184838Y-155076495D01*
X222280076Y-155028876D01*
X222327695Y-154981257D01*
X222375314Y-154886019D01*
X222375314Y-154743161D01*
X222327695Y-154647923D01*
X221994361Y-155076495D02*
X222041980Y-154981257D01*
X222041980Y-154790780D01*
X221994361Y-154695542D01*
X221946742Y-154647923D01*
X221851504Y-154600304D01*
X221565790Y-154600304D01*
X221470552Y-154647923D01*
X221422933Y-154695542D01*
X221375314Y-154790780D01*
X221375314Y-154981257D01*
X221422933Y-155076495D01*
X222041980Y-155552685D02*
X221041980Y-155552685D01*
X222041980Y-155981257D02*
X221518171Y-155981257D01*
X221422933Y-155933638D01*
X221375314Y-155838400D01*
X221375314Y-155695542D01*
X221422933Y-155600304D01*
X221470552Y-155552685D01*
X221375314Y-156314590D02*
X221375314Y-156695542D01*
X221041980Y-156457447D02*
X221899123Y-156457447D01*
X221994361Y-156505066D01*
X222041980Y-156600304D01*
X222041980Y-156695542D01*
X221137219Y-156981257D02*
X221089600Y-157028876D01*
X221041980Y-157124114D01*
X221041980Y-157362209D01*
X221089600Y-157457447D01*
X221137219Y-157505066D01*
X221232457Y-157552685D01*
X221327695Y-157552685D01*
X221470552Y-157505066D01*
X222041980Y-156933638D01*
X222041980Y-157552685D01*
%TO.C,CTop1*%
X77014342Y-49347619D02*
X77061961Y-49300000D01*
X77109580Y-49157142D01*
X77109580Y-49061904D01*
X77061961Y-48919047D01*
X76966723Y-48823809D01*
X76871485Y-48776190D01*
X76681009Y-48728571D01*
X76538152Y-48728571D01*
X76347676Y-48776190D01*
X76252438Y-48823809D01*
X76157200Y-48919047D01*
X76109580Y-49061904D01*
X76109580Y-49157142D01*
X76157200Y-49300000D01*
X76204819Y-49347619D01*
X76109580Y-49633333D02*
X76109580Y-50204761D01*
X77109580Y-49919047D02*
X76109580Y-49919047D01*
X77109580Y-50680952D02*
X77061961Y-50585714D01*
X77014342Y-50538095D01*
X76919104Y-50490476D01*
X76633390Y-50490476D01*
X76538152Y-50538095D01*
X76490533Y-50585714D01*
X76442914Y-50680952D01*
X76442914Y-50823809D01*
X76490533Y-50919047D01*
X76538152Y-50966666D01*
X76633390Y-51014285D01*
X76919104Y-51014285D01*
X77014342Y-50966666D01*
X77061961Y-50919047D01*
X77109580Y-50823809D01*
X77109580Y-50680952D01*
X76442914Y-51442857D02*
X77442914Y-51442857D01*
X76490533Y-51442857D02*
X76442914Y-51538095D01*
X76442914Y-51728571D01*
X76490533Y-51823809D01*
X76538152Y-51871428D01*
X76633390Y-51919047D01*
X76919104Y-51919047D01*
X77014342Y-51871428D01*
X77061961Y-51823809D01*
X77109580Y-51728571D01*
X77109580Y-51538095D01*
X77061961Y-51442857D01*
X77109580Y-52871428D02*
X77109580Y-52300000D01*
X77109580Y-52585714D02*
X76109580Y-52585714D01*
X76252438Y-52490476D01*
X76347676Y-52395238D01*
X76395295Y-52300000D01*
%TO.C,CTop2*%
X75947542Y-72868019D02*
X75995161Y-72820400D01*
X76042780Y-72677542D01*
X76042780Y-72582304D01*
X75995161Y-72439447D01*
X75899923Y-72344209D01*
X75804685Y-72296590D01*
X75614209Y-72248971D01*
X75471352Y-72248971D01*
X75280876Y-72296590D01*
X75185638Y-72344209D01*
X75090400Y-72439447D01*
X75042780Y-72582304D01*
X75042780Y-72677542D01*
X75090400Y-72820400D01*
X75138019Y-72868019D01*
X75042780Y-73153733D02*
X75042780Y-73725161D01*
X76042780Y-73439447D02*
X75042780Y-73439447D01*
X76042780Y-74201352D02*
X75995161Y-74106114D01*
X75947542Y-74058495D01*
X75852304Y-74010876D01*
X75566590Y-74010876D01*
X75471352Y-74058495D01*
X75423733Y-74106114D01*
X75376114Y-74201352D01*
X75376114Y-74344209D01*
X75423733Y-74439447D01*
X75471352Y-74487066D01*
X75566590Y-74534685D01*
X75852304Y-74534685D01*
X75947542Y-74487066D01*
X75995161Y-74439447D01*
X76042780Y-74344209D01*
X76042780Y-74201352D01*
X75376114Y-74963257D02*
X76376114Y-74963257D01*
X75423733Y-74963257D02*
X75376114Y-75058495D01*
X75376114Y-75248971D01*
X75423733Y-75344209D01*
X75471352Y-75391828D01*
X75566590Y-75439447D01*
X75852304Y-75439447D01*
X75947542Y-75391828D01*
X75995161Y-75344209D01*
X76042780Y-75248971D01*
X76042780Y-75058495D01*
X75995161Y-74963257D01*
X75138019Y-75820400D02*
X75090400Y-75868019D01*
X75042780Y-75963257D01*
X75042780Y-76201352D01*
X75090400Y-76296590D01*
X75138019Y-76344209D01*
X75233257Y-76391828D01*
X75328495Y-76391828D01*
X75471352Y-76344209D01*
X76042780Y-75772780D01*
X76042780Y-76391828D01*
%TO.C,RMax1=10*%
X271978380Y-66480133D02*
X271502190Y-66146800D01*
X271978380Y-65908704D02*
X270978380Y-65908704D01*
X270978380Y-66289657D01*
X271026000Y-66384895D01*
X271073619Y-66432514D01*
X271168857Y-66480133D01*
X271311714Y-66480133D01*
X271406952Y-66432514D01*
X271454571Y-66384895D01*
X271502190Y-66289657D01*
X271502190Y-65908704D01*
X271978380Y-66908704D02*
X270978380Y-66908704D01*
X271692666Y-67242038D01*
X270978380Y-67575371D01*
X271978380Y-67575371D01*
X271978380Y-68480133D02*
X271454571Y-68480133D01*
X271359333Y-68432514D01*
X271311714Y-68337276D01*
X271311714Y-68146800D01*
X271359333Y-68051561D01*
X271930761Y-68480133D02*
X271978380Y-68384895D01*
X271978380Y-68146800D01*
X271930761Y-68051561D01*
X271835523Y-68003942D01*
X271740285Y-68003942D01*
X271645047Y-68051561D01*
X271597428Y-68146800D01*
X271597428Y-68384895D01*
X271549809Y-68480133D01*
X271978380Y-68861085D02*
X271311714Y-69384895D01*
X271311714Y-68861085D02*
X271978380Y-69384895D01*
X271978380Y-70289657D02*
X271978380Y-69718228D01*
X271978380Y-70003942D02*
X270978380Y-70003942D01*
X271121238Y-69908704D01*
X271216476Y-69813466D01*
X271264095Y-69718228D01*
X271454571Y-70718228D02*
X271454571Y-71480133D01*
X271740285Y-71480133D02*
X271740285Y-70718228D01*
X271978380Y-72480133D02*
X271978380Y-71908704D01*
X271978380Y-72194419D02*
X270978380Y-72194419D01*
X271121238Y-72099180D01*
X271216476Y-72003942D01*
X271264095Y-71908704D01*
X270978380Y-73099180D02*
X270978380Y-73194419D01*
X271026000Y-73289657D01*
X271073619Y-73337276D01*
X271168857Y-73384895D01*
X271359333Y-73432514D01*
X271597428Y-73432514D01*
X271787904Y-73384895D01*
X271883142Y-73337276D01*
X271930761Y-73289657D01*
X271978380Y-73194419D01*
X271978380Y-73099180D01*
X271930761Y-73003942D01*
X271883142Y-72956323D01*
X271787904Y-72908704D01*
X271597428Y-72861085D01*
X271359333Y-72861085D01*
X271168857Y-72908704D01*
X271073619Y-72956323D01*
X271026000Y-73003942D01*
X270978380Y-73099180D01*
%TO.C,RMidiOut1=220*%
X234998590Y-64104780D02*
X235331923Y-63628590D01*
X235570019Y-64104780D02*
X235570019Y-63104780D01*
X235189066Y-63104780D01*
X235093828Y-63152400D01*
X235046209Y-63200019D01*
X234998590Y-63295257D01*
X234998590Y-63438114D01*
X235046209Y-63533352D01*
X235093828Y-63580971D01*
X235189066Y-63628590D01*
X235570019Y-63628590D01*
X234570019Y-64104780D02*
X234570019Y-63104780D01*
X234236685Y-63819066D01*
X233903352Y-63104780D01*
X233903352Y-64104780D01*
X233427161Y-64104780D02*
X233427161Y-63438114D01*
X233427161Y-63104780D02*
X233474780Y-63152400D01*
X233427161Y-63200019D01*
X233379542Y-63152400D01*
X233427161Y-63104780D01*
X233427161Y-63200019D01*
X232522400Y-64104780D02*
X232522400Y-63104780D01*
X232522400Y-64057161D02*
X232617638Y-64104780D01*
X232808114Y-64104780D01*
X232903352Y-64057161D01*
X232950971Y-64009542D01*
X232998590Y-63914304D01*
X232998590Y-63628590D01*
X232950971Y-63533352D01*
X232903352Y-63485733D01*
X232808114Y-63438114D01*
X232617638Y-63438114D01*
X232522400Y-63485733D01*
X232046209Y-64104780D02*
X232046209Y-63438114D01*
X232046209Y-63104780D02*
X232093828Y-63152400D01*
X232046209Y-63200019D01*
X231998590Y-63152400D01*
X232046209Y-63104780D01*
X232046209Y-63200019D01*
X231379542Y-63104780D02*
X231189066Y-63104780D01*
X231093828Y-63152400D01*
X230998590Y-63247638D01*
X230950971Y-63438114D01*
X230950971Y-63771447D01*
X230998590Y-63961923D01*
X231093828Y-64057161D01*
X231189066Y-64104780D01*
X231379542Y-64104780D01*
X231474780Y-64057161D01*
X231570019Y-63961923D01*
X231617638Y-63771447D01*
X231617638Y-63438114D01*
X231570019Y-63247638D01*
X231474780Y-63152400D01*
X231379542Y-63104780D01*
X230093828Y-63438114D02*
X230093828Y-64104780D01*
X230522400Y-63438114D02*
X230522400Y-63961923D01*
X230474780Y-64057161D01*
X230379542Y-64104780D01*
X230236685Y-64104780D01*
X230141447Y-64057161D01*
X230093828Y-64009542D01*
X229760495Y-63438114D02*
X229379542Y-63438114D01*
X229617638Y-63104780D02*
X229617638Y-63961923D01*
X229570019Y-64057161D01*
X229474780Y-64104780D01*
X229379542Y-64104780D01*
X228522400Y-64104780D02*
X229093828Y-64104780D01*
X228808114Y-64104780D02*
X228808114Y-63104780D01*
X228903352Y-63247638D01*
X228998590Y-63342876D01*
X229093828Y-63390495D01*
X228093828Y-63580971D02*
X227331923Y-63580971D01*
X227331923Y-63866685D02*
X228093828Y-63866685D01*
X226903352Y-63200019D02*
X226855733Y-63152400D01*
X226760495Y-63104780D01*
X226522400Y-63104780D01*
X226427161Y-63152400D01*
X226379542Y-63200019D01*
X226331923Y-63295257D01*
X226331923Y-63390495D01*
X226379542Y-63533352D01*
X226950971Y-64104780D01*
X226331923Y-64104780D01*
X225950971Y-63200019D02*
X225903352Y-63152400D01*
X225808114Y-63104780D01*
X225570019Y-63104780D01*
X225474780Y-63152400D01*
X225427161Y-63200019D01*
X225379542Y-63295257D01*
X225379542Y-63390495D01*
X225427161Y-63533352D01*
X225998590Y-64104780D01*
X225379542Y-64104780D01*
X224760495Y-63104780D02*
X224665257Y-63104780D01*
X224570019Y-63152400D01*
X224522400Y-63200019D01*
X224474780Y-63295257D01*
X224427161Y-63485733D01*
X224427161Y-63723828D01*
X224474780Y-63914304D01*
X224522400Y-64009542D01*
X224570019Y-64057161D01*
X224665257Y-64104780D01*
X224760495Y-64104780D01*
X224855733Y-64057161D01*
X224903352Y-64009542D01*
X224950971Y-63914304D01*
X224998590Y-63723828D01*
X224998590Y-63485733D01*
X224950971Y-63295257D01*
X224903352Y-63200019D01*
X224855733Y-63152400D01*
X224760495Y-63104780D01*
%TO.C,RMidiOut2*%
X230766571Y-61005980D02*
X231099904Y-60529790D01*
X231338000Y-61005980D02*
X231338000Y-60005980D01*
X230957047Y-60005980D01*
X230861809Y-60053600D01*
X230814190Y-60101219D01*
X230766571Y-60196457D01*
X230766571Y-60339314D01*
X230814190Y-60434552D01*
X230861809Y-60482171D01*
X230957047Y-60529790D01*
X231338000Y-60529790D01*
X230338000Y-61005980D02*
X230338000Y-60005980D01*
X230004666Y-60720266D01*
X229671333Y-60005980D01*
X229671333Y-61005980D01*
X229195142Y-61005980D02*
X229195142Y-60339314D01*
X229195142Y-60005980D02*
X229242761Y-60053600D01*
X229195142Y-60101219D01*
X229147523Y-60053600D01*
X229195142Y-60005980D01*
X229195142Y-60101219D01*
X228290380Y-61005980D02*
X228290380Y-60005980D01*
X228290380Y-60958361D02*
X228385619Y-61005980D01*
X228576095Y-61005980D01*
X228671333Y-60958361D01*
X228718952Y-60910742D01*
X228766571Y-60815504D01*
X228766571Y-60529790D01*
X228718952Y-60434552D01*
X228671333Y-60386933D01*
X228576095Y-60339314D01*
X228385619Y-60339314D01*
X228290380Y-60386933D01*
X227814190Y-61005980D02*
X227814190Y-60339314D01*
X227814190Y-60005980D02*
X227861809Y-60053600D01*
X227814190Y-60101219D01*
X227766571Y-60053600D01*
X227814190Y-60005980D01*
X227814190Y-60101219D01*
X227147523Y-60005980D02*
X226957047Y-60005980D01*
X226861809Y-60053600D01*
X226766571Y-60148838D01*
X226718952Y-60339314D01*
X226718952Y-60672647D01*
X226766571Y-60863123D01*
X226861809Y-60958361D01*
X226957047Y-61005980D01*
X227147523Y-61005980D01*
X227242761Y-60958361D01*
X227338000Y-60863123D01*
X227385619Y-60672647D01*
X227385619Y-60339314D01*
X227338000Y-60148838D01*
X227242761Y-60053600D01*
X227147523Y-60005980D01*
X225861809Y-60339314D02*
X225861809Y-61005980D01*
X226290380Y-60339314D02*
X226290380Y-60863123D01*
X226242761Y-60958361D01*
X226147523Y-61005980D01*
X226004666Y-61005980D01*
X225909428Y-60958361D01*
X225861809Y-60910742D01*
X225528476Y-60339314D02*
X225147523Y-60339314D01*
X225385619Y-60005980D02*
X225385619Y-60863123D01*
X225338000Y-60958361D01*
X225242761Y-61005980D01*
X225147523Y-61005980D01*
X224861809Y-60101219D02*
X224814190Y-60053600D01*
X224718952Y-60005980D01*
X224480857Y-60005980D01*
X224385619Y-60053600D01*
X224338000Y-60101219D01*
X224290380Y-60196457D01*
X224290380Y-60291695D01*
X224338000Y-60434552D01*
X224909428Y-61005980D01*
X224290380Y-61005980D01*
%TD*%
M02*
