M48
; DRILL file {KiCad (5.1.9)-1} date 06/28/21 23:04:21
; FORMAT={-:-/ absolute / inch / decimal}
; #@! TF.CreationDate,2021-06-28T23:04:21+02:00
; #@! TF.GenerationSoftware,Kicad,Pcbnew,(5.1.9)-1
; #@! TF.FileFunction,Plated,1,2,PTH
FMAT,2
INCH
T1C0.0157
T2C0.0315
T3C0.0394
T4C0.0437
T5C0.0472
T6C0.0480
T7C0.0550
T8C0.0591
T9C0.0630
T10C0.0787
T11C0.0866
T12C0.0984
T13C0.1181
%
G90
G05
T1
X4.1551Y-3.8309
X4.244Y-2.7865
X4.29Y-2.372
X4.3352Y-4.1068
X4.6743Y-3.5774
X4.7844Y-3.4376
X4.86Y-3.334
X5.0543Y-4.2762
X5.1115Y-3.9715
X5.1775Y-3.9685
X5.2335Y-4.1305
X5.336Y-3.332
X5.5103Y-4.1905
X6.566Y-6.822
X7.888Y-4.884
X8.062Y-4.676
T2
X2.408Y-2.966
X2.41Y-2.834
X2.418Y-2.0755
X2.42Y-1.944
X2.808Y-2.966
X2.81Y-2.834
X2.818Y-2.0755
X2.82Y-1.944
X2.988Y-1.9071
X2.988Y-2.104
X2.992Y-2.826
X2.992Y-3.0229
X6.65Y-3.236
X6.65Y-3.362
X7.004Y-6.192
X7.006Y-6.062
X7.05Y-3.236
X7.05Y-3.362
X7.066Y-5.168
X7.066Y-5.308
X7.29Y-1.91
X7.29Y-2.01
X7.29Y-2.11
X7.29Y-2.21
X7.294Y-2.364
X7.404Y-6.192
X7.406Y-6.062
X7.466Y-5.168
X7.466Y-5.308
X7.578Y-6.02
X7.578Y-6.2169
X7.59Y-1.91
X7.59Y-2.01
X7.59Y-2.11
X7.59Y-2.21
X7.594Y-2.364
X7.618Y-5.1191
X7.618Y-5.316
X7.868Y-2.368
X7.868Y-2.496
X8.156Y-6.012
X8.158Y-6.1475
X8.16Y-5.14
X8.162Y-5.264
X8.268Y-2.368
X8.268Y-2.496
X8.556Y-6.012
X8.558Y-6.1475
X8.56Y-5.14
X8.562Y-5.264
X8.706Y-6.0071
X8.706Y-6.204
X8.708Y-5.12
X8.708Y-5.3169
X8.748Y-2.376
X8.752Y-2.51
X9.148Y-2.376
X9.152Y-2.51
X9.586Y-2.52
X9.592Y-2.392
X9.986Y-2.52
X9.992Y-2.392
X10.186Y-2.56
X10.186Y-2.66
X10.186Y-2.76
X10.186Y-2.86
X10.25Y-6.8575
X10.486Y-2.56
X10.486Y-2.66
X10.486Y-2.76
X10.486Y-2.86
X10.65Y-6.8575
X10.692Y-2.55
X10.692Y-2.95
T3
X2.52Y-2.37
X2.52Y-2.4684
X2.52Y-2.5669
X5.63Y-3.6069
X5.73Y-3.6069
X5.83Y-3.6069
X5.93Y-3.6069
X6.03Y-3.6069
X6.13Y-3.6069
X6.23Y-3.6069
X6.33Y-3.6069
X6.43Y-3.6069
X6.53Y-3.6069
X6.63Y-3.6069
X6.73Y-3.6069
X6.83Y-3.6069
X6.93Y-3.6069
X7.03Y-3.6069
X7.107Y-5.5655
X7.107Y-5.6639
X7.107Y-5.7624
X7.13Y-3.6069
X7.23Y-3.6069
X7.33Y-3.6069
X7.43Y-3.6069
X7.53Y-3.6069
X8.24Y-5.56
X8.24Y-5.6584
X8.24Y-5.7569
T4
X3.93Y-1.73
X3.93Y-1.83
X3.93Y-1.93
X3.93Y-2.03
X3.93Y-2.13
X3.93Y-2.23
X3.93Y-2.33
X3.93Y-2.43
X3.93Y-2.53
X3.93Y-2.63
X3.93Y-2.73
X3.93Y-2.83
X3.93Y-2.93
X3.93Y-3.03
X3.93Y-3.13
X3.93Y-3.23
X3.93Y-3.33
X3.93Y-3.43
X3.93Y-3.53
X3.93Y-3.63
X3.93Y-3.73
X3.93Y-3.83
X3.93Y-3.93
X3.93Y-4.03
X4.53Y-1.73
X4.53Y-1.83
X4.53Y-1.93
X4.53Y-2.03
X4.53Y-2.13
X4.53Y-2.23
X4.53Y-2.33
X4.53Y-2.43
X4.53Y-2.53
X4.53Y-2.63
X4.53Y-2.73
X4.53Y-2.83
X4.53Y-2.93
X4.53Y-3.03
X4.53Y-3.13
X4.53Y-3.23
X4.53Y-3.33
X4.53Y-3.43
X4.53Y-3.53
X4.53Y-3.63
X4.53Y-3.73
X4.53Y-3.83
X4.53Y-3.93
X4.53Y-4.03
T5
X10.848Y-2.3192
X11.1728Y-1.9188
T6
X2.566Y-3.91
X2.566Y-5.1
X2.666Y-4.11
X2.666Y-5.3
X2.7652Y-4.21
X2.7652Y-5.4
X2.866Y-3.91
X2.866Y-5.1
X3.17Y-5.83
X3.1835Y-3.301
X3.1835Y-4.507
X3.27Y-6.03
X3.2835Y-3.501
X3.2835Y-4.707
X3.3692Y-6.13
X3.3827Y-3.601
X3.3827Y-4.807
X3.47Y-5.83
X3.4835Y-3.301
X3.4835Y-4.507
X3.788Y-6.8385
X3.8667Y-5.83
X3.888Y-7.0385
X3.9667Y-6.03
X3.9872Y-7.1385
X4.0659Y-6.13
X4.088Y-6.8385
X4.1667Y-5.83
X4.4847Y-6.8385
X4.5633Y-5.83
X4.5847Y-7.0385
X4.6633Y-6.03
X4.6839Y-7.1385
X4.7625Y-6.13
X4.7847Y-6.8385
X4.83Y-2.74
X4.8633Y-5.83
X4.93Y-2.94
X5.0292Y-3.04
X5.13Y-2.74
X5.1813Y-6.8385
X5.26Y-5.83
X5.2813Y-7.0385
X5.36Y-6.03
X5.3805Y-7.1385
X5.445Y-2.11
X5.4592Y-6.13
X5.4813Y-6.8385
X5.545Y-2.31
X5.56Y-5.83
X5.6442Y-2.41
X5.745Y-2.11
X5.878Y-6.8385
X5.978Y-7.0385
X6.052Y-2.75
X6.0772Y-7.1385
X6.152Y-2.95
X6.178Y-6.8385
X6.238Y-5.5425
X6.2512Y-3.05
X6.338Y-5.7425
X6.352Y-2.75
X6.4372Y-5.8425
X6.538Y-5.5425
X6.675Y-2.11
X6.775Y-2.31
X6.838Y-6.8385
X6.8742Y-2.41
X6.938Y-7.0385
X6.975Y-2.11
X7.0372Y-7.1385
X7.138Y-6.8385
X7.29Y-2.74
X7.39Y-2.94
X7.4892Y-3.04
X7.5254Y-6.8385
X7.59Y-2.74
X7.6254Y-7.0385
X7.7246Y-7.1385
X7.8254Y-6.8385
X8.2128Y-6.8385
X8.3128Y-7.0385
X8.412Y-7.1385
X8.5128Y-6.8385
X8.9002Y-6.8385
X8.969Y-2.7665
X8.969Y-3.9365
X9.0002Y-7.0385
X9.069Y-2.9665
X9.069Y-4.1365
X9.0994Y-7.1385
X9.1682Y-3.0665
X9.1682Y-4.2365
X9.2002Y-6.8385
X9.269Y-2.7665
X9.269Y-3.9365
X9.6155Y-3.362
X9.6155Y-4.5525
X9.6155Y-5.9265
X9.7155Y-3.562
X9.7155Y-4.7525
X9.7155Y-6.1265
X9.8147Y-3.662
X9.8147Y-4.8525
X9.8147Y-6.2265
X9.9155Y-3.362
X9.9155Y-4.5525
X9.9155Y-5.9265
T7
X7.7748Y-2.018
X7.8733Y-2.1165
X8.07Y-2.0181
X8.2667Y-2.1165
X8.3652Y-2.018
X8.6568Y-2.018
X8.7553Y-2.1165
X8.952Y-2.0181
X9.1487Y-2.1165
X9.2472Y-2.018
X9.5528Y-2.024
X9.6513Y-2.1225
X9.848Y-2.0241
X10.0447Y-2.1225
X10.1432Y-2.024
T8
X10.4324Y-6.66
X10.58Y-3.2151
X10.58Y-6.66
X10.7276Y-3.2151
X10.7276Y-6.66
X10.8753Y-6.66
T9
X10.698Y-2.169
X10.998Y-2.144
T11
X10.6538Y-3.9198
X10.6538Y-5.9553
T12
X4.7808Y-3.6659
X4.7808Y-4.6761
X8.3792Y-3.6777
X8.3792Y-4.6761
T13
X1.92Y-2.6
X1.922Y-4.012
X1.922Y-5.428
X1.924Y-6.84
X2.234Y-1.736
X2.372Y-7.724
X3.336Y-2.36
X3.362Y-5.372
X3.646Y-1.734
X3.784Y-7.722
X5.062Y-1.734
X5.066Y-5.16
X5.2Y-7.722
X6.474Y-1.732
X6.518Y-5.084
X6.612Y-7.72
X8.028Y-7.72
X8.13Y-2.974
X9.134Y-5.712
X9.44Y-7.718
X9.768Y-2.986
X9.876Y-7.132
X10.356Y-2.28
X10.856Y-7.718
X11.504Y-2.642
X11.506Y-4.054
X11.506Y-5.47
X11.508Y-6.882
X11.554Y-1.8
T10
G00X2.8054Y-2.248
M15
G01X2.8251Y-2.248
M16
G05
G00X2.8054Y-2.6889
M15
G01X2.8251Y-2.6889
M16
G05
G00X7.3924Y-5.4435
M15
G01X7.4121Y-5.4435
M16
G05
G00X7.3924Y-5.8844
M15
G01X7.4121Y-5.8844
M16
G05
G00X8.5254Y-5.438
M15
G01X8.5451Y-5.438
M16
G05
G00X8.5254Y-5.8789
M15
G01X8.5451Y-5.8789
M16
G05
T0
M30
